<svg width="36" height="36" viewBox="0 0 36 36" fill="none" xmlns="http://www.w3.org/2000/svg">
<path fill-rule="evenodd" clip-rule="evenodd" d="M18 36C27.9411 36 36 27.9411 36 18C36 8.05887 27.9411 0 18 0C8.05887 0 0 8.05887 0 18C0 27.9411 8.05887 36 18 36Z" fill="#1BD742"/>
<path d="M15.3793 12.2392L13.296 9.89549C12.8059 9.34418 12.0336 9.0864 11.4018 9.46718C11.0667 9.66917 10.7487 9.91304 10.4546 10.1737C8.9855 11.4756 8.67067 13.583 9.37001 15.4172C10.1023 17.3379 11.3797 19.8797 13.5 22C16.8395 25.3395 20.5 27 23.5 27C25.3955 27 26.792 26.0643 27.2953 24.932C27.5421 24.3768 27.2238 23.7791 26.7494 23.3995L23.7494 20.9995C23.019 20.4152 21.981 20.4152 21.2506 20.9995L20.5374 21.5701C20.2137 21.829 19.7621 21.8629 19.4101 21.644C17.103 20.2092 15.9738 18.948 14.7745 16.5625C14.6026 16.2206 14.6517 15.8103 14.8908 15.5115L15.4462 14.8173C16.0549 14.0564 16.0266 12.9675 15.3793 12.2392Z" fill="white"/>
</svg>
