<svg width="36" height="36" viewBox="0 0 36 36" fill="none" xmlns="http://www.w3.org/2000/svg">
<path fill-rule="evenodd" clip-rule="evenodd" d="M18 36C27.9411 36 36 27.9411 36 18C36 8.05887 27.9411 0 18 0C8.05887 0 0 8.05887 0 18C0 27.9411 8.05887 36 18 36Z" fill="#1BD742"/>
<path d="M27 17.0526C27 21.5 23.1944 25.1053 18.5 25.1053C17.4217 25.1053 16.3903 24.915 15.4412 24.5682L10 26L11.1599 21.1161C10.4226 19.9233 10 18.5347 10 17.0526C10 12.6053 13.8056 9 18.5 9C23.1944 9 27 12.6053 27 17.0526Z" fill="white"/>
</svg>
