<svg width="68" height="12" viewBox="0 0 68 12" fill="none" xmlns="http://www.w3.org/2000/svg">
<path opacity="0.35" d="M43.5 2.99992C43.5 1.8033 44.47 0.833252 45.6667 0.833252H62.3333C63.53 0.833252 64.5 1.8033 64.5 2.99992V8.99992C64.5 10.1965 63.53 11.1666 62.3333 11.1666H45.6667C44.47 11.1666 43.5 10.1965 43.5 8.99992V2.99992Z" stroke="black"/>
<path opacity="0.4" d="M66 4V8C66.8047 7.66122 67.328 6.87313 67.328 6C67.328 5.12687 66.8047 4.33878 66 4Z" fill="black"/>
<path d="M45 3.66659C45 2.93021 45.597 2.33325 46.3333 2.33325H61.6667C62.403 2.33325 63 2.93021 63 3.66659V8.33325C63 9.06963 62.403 9.66659 61.6667 9.66659H46.3333C45.597 9.66659 45 9.06963 45 8.33325V3.66659Z" fill="black"/>
<path fill-rule="evenodd" clip-rule="evenodd" d="M30.3303 2.60789C32.5462 2.60799 34.6774 3.45943 36.2833 4.98623C36.4043 5.1041 36.5976 5.10261 36.7167 4.98289L37.8727 3.81623C37.933 3.7555 37.9666 3.67325 37.9661 3.58767C37.9656 3.50209 37.931 3.42024 37.87 3.36023C33.6549 -0.67932 27.0051 -0.67932 22.79 3.36023C22.7289 3.4202 22.6943 3.50202 22.6937 3.5876C22.6932 3.67318 22.7267 3.75546 22.787 3.81623L23.9433 4.98289C24.0624 5.1028 24.2558 5.10428 24.3767 4.98623C25.9828 3.45933 28.1142 2.60789 30.3303 2.60789ZM30.3303 6.40356C31.5478 6.40349 32.7219 6.85602 33.6243 7.67323C33.7464 7.78921 33.9387 7.78669 34.0577 7.66756L35.2123 6.50089C35.2731 6.4397 35.3069 6.35668 35.306 6.27042C35.3051 6.18415 35.2697 6.10184 35.2077 6.04189C32.4595 3.48551 28.2035 3.48551 25.4553 6.04189C25.3933 6.10184 25.3578 6.18419 25.357 6.27049C25.3562 6.35678 25.3901 6.43979 25.451 6.50089L26.6053 7.66756C26.7243 7.78669 26.9166 7.78921 27.0387 7.67323C27.9405 6.85656 29.1136 6.40406 30.3303 6.40356ZM32.6433 8.95738C32.6451 9.04389 32.6111 9.12729 32.5493 9.18789L30.552 11.2036C30.4934 11.2628 30.4136 11.2961 30.3303 11.2961C30.247 11.2961 30.1672 11.2628 30.1087 11.2036L28.111 9.18789C28.0493 9.12724 28.0153 9.04381 28.0172 8.95731C28.019 8.8708 28.0564 8.78888 28.1207 8.73089C29.3962 7.65201 31.2644 7.65201 32.54 8.73089C32.6042 8.78893 32.6416 8.87087 32.6433 8.95738Z" fill="black"/>
<path fill-rule="evenodd" clip-rule="evenodd" d="M16.6666 0.666504H15.6666C15.1143 0.666504 14.6666 1.11422 14.6666 1.6665V10.3332C14.6666 10.8855 15.1143 11.3332 15.6666 11.3332H16.6666C17.2189 11.3332 17.6666 10.8855 17.6666 10.3332V1.6665C17.6666 1.11422 17.2189 0.666504 16.6666 0.666504ZM11 2.99984H12C12.5522 2.99984 13 3.44755 13 3.99984V10.3332C13 10.8855 12.5522 11.3332 12 11.3332H11C10.4477 11.3332 9.99996 10.8855 9.99996 10.3332V3.99984C9.99996 3.44755 10.4477 2.99984 11 2.99984ZM7.33329 5.33317H6.33329C5.78101 5.33317 5.33329 5.78089 5.33329 6.33317V10.3332C5.33329 10.8855 5.78101 11.3332 6.33329 11.3332H7.33329C7.88558 11.3332 8.33329 10.8855 8.33329 10.3332V6.33317C8.33329 5.78089 7.88558 5.33317 7.33329 5.33317ZM2.66663 7.33317H1.66663C1.11434 7.33317 0.666626 7.78089 0.666626 8.33317V10.3332C0.666626 10.8855 1.11434 11.3332 1.66663 11.3332H2.66663C3.21891 11.3332 3.66663 10.8855 3.66663 10.3332V8.33317C3.66663 7.78089 3.21891 7.33317 2.66663 7.33317Z" fill="black"/>
</svg>
