<svg width="36" height="36" viewBox="0 0 36 36" fill="none" xmlns="http://www.w3.org/2000/svg">
<path fill-rule="evenodd" clip-rule="evenodd" d="M18 36C27.9411 36 36 27.9411 36 18C36 8.05887 27.9411 0 18 0C8.05887 0 0 8.05887 0 18C0 27.9411 8.05887 36 18 36Z" fill="#EDEDFF"/>
<path fill-rule="evenodd" clip-rule="evenodd" d="M11.0601 22.1208L14.1881 25.2496C13.9796 25.4002 10.8277 27.0082 10.062 26.2425C9.29626 25.4768 10.9095 22.3287 11.0601 22.1208ZM20.7499 12.3787L23.9319 15.5607L15.2759 24.2147L12.0939 21.0327L20.7499 12.3787ZM24.0315 10.5135L25.7993 12.2813C26.1599 12.6417 26.1876 13.2089 25.8826 13.6012L25.7992 13.6954L24.9929 14.5007L21.8109 11.3187L22.6172 10.5134C23.0078 10.1231 23.6409 10.1231 24.0315 10.5135Z" fill="#1BD742"/>
</svg>
