<svg width="29" height="29" viewBox="0 0 29 29" fill="none" xmlns="http://www.w3.org/2000/svg">
<rect width="29" height="29" rx="6" fill="#EC72D7"/>
<path fill-rule="evenodd" clip-rule="evenodd" d="M20.7564 19.0839C20.7564 20.3048 19.8956 21.347 18.7144 21.5895L18.5513 21.6176C17.1597 21.8115 15.8198 21.4688 15.5482 20.4553C15.2766 19.4417 16.1208 18.4468 17.5078 18.0751C18.1061 17.9148 18.7144 17.9471 19.2565 17.9471L19.2556 10.2267L11.4996 12.3827L11.5 21.0839C11.5 22.3048 10.6392 23.347 9.45794 23.5895L9.29493 23.6176C7.9033 23.8115 6.56336 23.4688 6.29177 22.4553C6.02018 21.4417 6.89277 20.4401 8.27978 20.0684C8.87813 19.9081 9.45794 19.9471 10.0345 19.9471L10 9.00002L10.0345 8.99945C10.1248 8.66448 10.3858 8.39278 10.7322 8.29649L19.4886 5.86247C20.0207 5.71456 20.572 6.02601 20.7199 6.55812C20.7441 6.64533 20.7564 6.73542 20.7564 6.82594V19.0839Z" fill="white"/>
</svg>
