<svg width="24" height="24" viewBox="0 0 24 24" fill="none" xmlns="http://www.w3.org/2000/svg">
<path fill-rule="evenodd" clip-rule="evenodd" d="M4.75 4C2.12665 4 0 6.12665 0 8.75V16.0643C0 18.6876 2.12665 20.8143 4.75 20.8143H13.0214C15.6084 20.8143 17.7124 18.7461 17.7702 16.173L20.6899 18.4439C21.8394 19.3379 23.5143 18.5188 23.5143 17.0625V7.75178C23.5143 6.29552 21.8394 5.47636 20.6899 6.37042L17.7702 8.64128C17.7124 6.06814 15.6084 4 13.0214 4H4.75ZM17.7714 10.5406V14.2737L21.6108 17.2598C21.775 17.3876 22.0143 17.2705 22.0143 17.0625V7.75178C22.0143 7.54374 21.775 7.42672 21.6108 7.55444L17.7714 10.5406ZM16.2714 9.807V8.75C16.2714 6.95508 14.8164 5.5 13.0214 5.5H4.75C2.95508 5.5 1.5 6.95508 1.5 8.75V16.0643C1.5 17.8592 2.95508 19.3143 4.75 19.3143H13.0214C14.8164 19.3143 16.2714 17.8592 16.2714 16.0643V15.0073V14.6405V10.1738V9.807Z" fill="#1BD742"/>
</svg>
