<svg width="342" height="132" viewBox="0 0 342 132" fill="none" xmlns="http://www.w3.org/2000/svg">
<g clip-path="url(#clip0_2058_375)">
<rect width="342" height="132" rx="10" fill="#F5F5F5"/>
<rect width="342" height="44" fill="#F5F5F5"/>
<path d="M35.5297 28L36.058 24.7831H33.2521L32.7238 28H31.3032L31.8315 24.7831H30.0939L30.3229 23.3743H32.0604L32.5183 20.6036H30.7925L31.0214 19.1948H32.7472L33.2756 15.9779H34.6961L34.1678 19.1948H36.9738L37.5021 15.9779H38.9227L38.3943 19.1948H40.1436L39.9088 20.6036H38.1654L37.7075 23.3743H39.4451L39.2044 24.7831H37.4786L36.9503 28H35.5297ZM33.481 23.3743H36.2869L36.7448 20.6036H33.9389L33.481 23.3743ZM60.2343 14.5338V29.4088H58.6494V14.5338H60.2343ZM48.0126 25.423C51.9691 23.5445 53.8945 20.8619 54.2057 17.3926H48.7347V16.1364H55.8141C55.8023 20.4862 53.9532 24.2607 48.8462 26.6968L48.0126 25.423ZM71.4956 15.8077V16.9876H62.702V15.8077H66.3005V14.4399H67.8737V15.8077H71.4956ZM62.2148 22.8812C63.4417 22.8812 64.8447 22.8753 66.3005 22.8284V21.8774C64.5746 21.6896 63.4828 20.8971 63.4945 19.7113C63.4828 18.3377 64.921 17.4748 67.1047 17.4865C69.2532 17.4748 70.709 18.3377 70.7207 19.7113C70.709 20.903 69.5936 21.7013 67.8737 21.8774V22.7697C69.1945 22.7051 70.527 22.5994 71.7715 22.4351L71.8889 23.5269C68.6603 24.0611 65.1029 24.114 62.4379 24.114L62.2148 22.8812ZM64.3516 26.4268V25.1882H74.4952V29.4088H72.9103V26.4268H64.3516ZM64.9973 19.7113C64.9973 20.404 65.825 20.8384 67.1047 20.8267C68.3609 20.8384 69.2062 20.404 69.2062 19.7113C69.2062 18.9834 68.3609 18.5549 67.1047 18.5666C65.825 18.5549 64.9973 18.9834 64.9973 19.7113ZM72.9103 24.5307V14.5691H74.4952V24.5307H72.9103Z" fill="black"/>
<path d="M326 21.9966C326 21.716 325.897 21.4834 325.678 21.2644L320.41 16.1118C320.232 15.9339 320.019 15.8518 319.766 15.8518C319.253 15.8518 318.836 16.2555 318.836 16.7687C318.836 17.0219 318.945 17.2546 319.13 17.4393L323.81 21.9897L319.13 26.5538C318.945 26.7386 318.836 26.9644 318.836 27.2244C318.836 27.7376 319.253 28.1482 319.766 28.1482C320.019 28.1482 320.232 28.0592 320.41 27.8813L325.678 22.7288C325.904 22.5098 326 22.2771 326 21.9966Z" fill="#B9B9B9"/>
<rect width="342" height="44" transform="translate(0 44)" fill="#F5F5F5"/>
<path d="M35.5297 72L36.058 68.7831H33.2521L32.7238 72H31.3032L31.8315 68.7831H30.0939L30.3229 67.3743H32.0604L32.5183 64.6036H30.7925L31.0214 63.1948H32.7472L33.2756 59.9779H34.6961L34.1678 63.1948H36.9738L37.5021 59.9779H38.9227L38.3943 63.1948H40.1436L39.9088 64.6036H38.1654L37.7075 67.3743H39.4451L39.2044 68.7831H37.4786L36.9503 72H35.5297ZM33.481 67.3743H36.2869L36.7448 64.6036H33.9389L33.481 67.3743ZM52.4035 62.596C52.4035 64.9793 53.3956 67.5093 55.3914 68.7244L54.505 69.9454C53.1138 69.106 52.1746 67.615 51.6639 65.895C51.1179 67.7794 50.0965 69.3878 48.6525 70.2683L47.6663 69.0943C49.7737 67.8381 50.8773 65.2023 50.8773 62.6664V59.8898H52.4035V62.596ZM53.7713 65.0732V63.7642H56.09V58.8215H57.5751V72.6751H56.09V65.0732H53.7713ZM59.1483 73.4088V58.5338H60.6628V73.4088H59.1483ZM67.4041 61.2282C67.4041 63.365 68.7366 65.4195 70.9555 66.2648L70.0808 67.4917C68.4666 66.8401 67.269 65.5428 66.6351 63.9344C65.9952 65.6661 64.7331 67.0397 63.0014 67.7324L62.1503 66.482C64.4455 65.625 65.8308 63.5059 65.8367 61.2282V59.3791H67.4041V61.2282ZM64.8388 73.1036V68.5073H66.4296V71.8122H74.8885V73.1036H64.8388ZM70.0926 64.9382V63.6585H72.9807V61.9444H70.0926V60.6588H72.9807V58.5456H74.5539V69.6285H72.9807V64.9382H70.0926Z" fill="#9B9B9B"/>
<rect width="342" height="44" transform="translate(0 88)" fill="#F5F5F5"/>
<path d="M35.5297 116L36.058 112.783H33.2521L32.7238 116H31.3032L31.8315 112.783H30.0939L30.3229 111.374H32.0604L32.5183 108.604H30.7925L31.0214 107.195H32.7472L33.2756 103.978H34.6961L34.1678 107.195H36.9738L37.5021 103.978H38.9227L38.3943 107.195H40.1436L39.9088 108.604H38.1654L37.7075 111.374H39.4451L39.2044 112.783H37.4786L36.9503 116H35.5297ZM33.481 111.374H36.2869L36.7448 108.604H33.9389L33.481 111.374ZM55.4266 104.647C55.4266 107.066 58.0036 109.361 60.8565 109.872L60.1404 111.186C57.7571 110.67 55.5734 109.114 54.6048 107.025C53.6245 109.103 51.4467 110.664 49.0634 111.186L48.359 109.872C51.1884 109.343 53.7536 107.066 53.7654 104.647V103.526H55.4266V104.647ZM47.8717 115.454V114.145H61.4847V115.454H47.8717ZM74.5598 102.534V117.438H72.9983V109.32H70.0339V108.034H72.9983V102.534H74.5598ZM62.8371 113.922V103.855H69.7873V105.146H64.422V108.034H69.1651V109.29H64.422V112.619C66.911 112.613 68.6368 112.537 70.615 112.196L70.7853 113.482C68.6192 113.828 66.7525 113.916 63.9876 113.922H62.8371ZM88.762 102.534V117.438H87.177V102.534H88.762ZM77.3856 113.793V103.919H84.512V105.222H78.9705V112.449C81.7882 112.443 83.6021 112.36 85.6978 111.979L85.8563 113.294C83.6373 113.699 81.6943 113.787 78.6183 113.793H77.3856Z" fill="#9B9B9B"/>
</g>
<defs>
<clipPath id="clip0_2058_375">
<rect width="342" height="132" rx="10" fill="white"/>
</clipPath>
</defs>
</svg>
