<svg width="342" height="132" viewBox="0 0 342 132" fill="none" xmlns="http://www.w3.org/2000/svg">
<g clip-path="url(#clip0_2058_125)">
<rect width="342" height="132" rx="10" fill="#F5F5F5"/>
<rect width="342" height="44" fill="#F5F5F5"/>
<circle cx="16" cy="22" r="4" fill="#ED4245"/>
<path d="M35.5297 28L36.058 24.7831H33.2521L32.7238 28H31.3032L31.8315 24.7831H30.0939L30.3229 23.3743H32.0604L32.5183 20.6036H30.7925L31.0214 19.1948H32.7472L33.2756 15.9779H34.6961L34.1678 19.1948H36.9738L37.5021 15.9779H38.9227L38.3943 19.1948H40.1436L39.9088 20.6036H38.1654L37.7075 23.3743H39.4451L39.2044 24.7831H37.4786L36.9503 28H35.5297ZM33.481 23.3743H36.2869L36.7448 20.6036H33.9389L33.481 23.3743ZM60.1932 14.5338V29.4382H58.6083V14.5338H60.1932ZM48.8168 25.7928V15.9192H55.9432V17.2224H50.4018V24.4485C53.2195 24.4427 55.0333 24.3605 57.129 23.9789L57.2875 25.2939C55.0686 25.6989 53.1255 25.7869 50.0496 25.7928H48.8168ZM67.3395 18.9247C67.3277 21.2669 68.8775 23.8909 71.1316 24.9534L70.2393 26.1979C68.5663 25.3936 67.2456 23.7148 66.5705 21.7718C65.8895 23.8909 64.4983 25.7282 62.8077 26.5677L61.8744 25.3232C64.1285 24.2431 65.7663 21.4372 65.778 18.9247V17.3339H62.4262V16.0307H70.5681V17.3339H67.3395V18.9247ZM72.1648 29.4088V14.5338H73.7438V20.4334H76.1271V21.7659H73.7438V29.4088H72.1648ZM88.7796 14.5456V25.3584H87.2005V14.5456H88.7796ZM76.7399 19.2358C76.7399 17.0815 78.4598 15.5552 80.7022 15.5552C82.9446 15.5552 84.6529 17.0815 84.6529 19.2358C84.6529 21.4195 82.9446 22.9399 80.7022 22.934C78.4598 22.9399 76.7399 21.4195 76.7399 19.2358ZM78.2837 19.2358C78.272 20.6329 79.3169 21.5604 80.7022 21.5604C82.0641 21.5604 83.109 20.6329 83.109 19.2358C83.109 17.8622 82.0641 16.9289 80.7022 16.9289C79.3169 16.9289 78.272 17.8622 78.2837 19.2358ZM79.0469 29.1036V24.2607H80.6318V27.8122H89.214V29.1036H79.0469Z" fill="black"/>
<path d="M326 21.9966C326 21.716 325.897 21.4834 325.678 21.2644L320.41 16.1118C320.232 15.9339 320.019 15.8518 319.766 15.8518C319.253 15.8518 318.836 16.2555 318.836 16.7687C318.836 17.0219 318.945 17.2546 319.13 17.4393L323.81 21.9897L319.13 26.5538C318.945 26.7386 318.836 26.9644 318.836 27.2244C318.836 27.7376 319.253 28.1482 319.766 28.1482C320.019 28.1482 320.232 28.0592 320.41 27.8813L325.678 22.7288C325.904 22.5098 326 22.2771 326 21.9966Z" fill="#B9B9B9"/>
<rect width="342" height="44" transform="translate(0 44)" fill="#F5F5F5"/>
<path d="M35.5297 72L36.058 68.7831H33.2521L32.7238 72H31.3032L31.8315 68.7831H30.0939L30.3229 67.3743H32.0604L32.5183 64.6036H30.7925L31.0214 63.1948H32.7472L33.2756 59.9779H34.6961L34.1678 63.1948H36.9738L37.5021 59.9779H38.9227L38.3943 63.1948H40.1436L39.9088 64.6036H38.1654L37.7075 67.3743H39.4451L39.2044 68.7831H37.4786L36.9503 72H35.5297ZM33.481 67.3743H36.2869L36.7448 64.6036H33.9389L33.481 67.3743ZM52.4035 62.596C52.4035 64.9793 53.3956 67.5093 55.3914 68.7244L54.505 69.9454C53.1138 69.106 52.1746 67.615 51.6639 65.895C51.1179 67.7794 50.0965 69.3878 48.6525 70.2683L47.6663 69.0943C49.7737 67.8381 50.8773 65.2023 50.8773 62.6664V59.8898H52.4035V62.596ZM53.7713 65.0732V63.7642H56.09V58.8215H57.5751V72.6751H56.09V65.0732H53.7713ZM59.1483 73.4088V58.5338H60.6628V73.4088H59.1483ZM67.4041 61.2282C67.4041 63.365 68.7366 65.4195 70.9555 66.2648L70.0808 67.4917C68.4666 66.8401 67.269 65.5428 66.6351 63.9344C65.9952 65.6661 64.7331 67.0397 63.0014 67.7324L62.1503 66.482C64.4455 65.625 65.8308 63.5059 65.8367 61.2282V59.3791H67.4041V61.2282ZM64.8388 73.1036V68.5073H66.4296V71.8122H74.8885V73.1036H64.8388ZM70.0926 64.9382V63.6585H72.9807V61.9444H70.0926V60.6588H72.9807V58.5456H74.5539V69.6285H72.9807V64.9382H70.0926Z" fill="#9B9B9B"/>
<rect width="342" height="44" transform="translate(0 88)" fill="#F5F5F5"/>
<circle cx="16" cy="110" r="4" fill="#ED4245"/>
<path d="M35.5297 116L36.058 112.783H33.2521L32.7238 116H31.3032L31.8315 112.783H30.0939L30.3229 111.374H32.0604L32.5183 108.604H30.7925L31.0214 107.195H32.7472L33.2756 103.978H34.6961L34.1678 107.195H36.9738L37.5021 103.978H38.9227L38.3943 107.195H40.1436L39.9088 108.604H38.1654L37.7075 111.374H39.4451L39.2044 112.783H37.4786L36.9503 116H35.5297ZM33.481 111.374H36.2869L36.7448 108.604H33.9389L33.481 111.374ZM55.4266 104.647C55.4266 107.066 58.0036 109.361 60.8565 109.872L60.1404 111.186C57.7571 110.67 55.5734 109.114 54.6048 107.025C53.6245 109.103 51.4467 110.664 49.0634 111.186L48.359 109.872C51.1884 109.343 53.7536 107.066 53.7654 104.647V103.526H55.4266V104.647ZM47.8717 115.454V114.145H61.4847V115.454H47.8717ZM74.5598 102.534V117.438H72.9983V109.32H70.0339V108.034H72.9983V102.534H74.5598ZM62.8371 113.922V103.855H69.7873V105.146H64.422V108.034H69.1651V109.29H64.422V112.619C66.911 112.613 68.6368 112.537 70.615 112.196L70.7853 113.482C68.6192 113.828 66.7525 113.916 63.9876 113.922H62.8371ZM88.762 102.534V117.438H87.177V102.534H88.762ZM77.3856 113.793V103.919H84.512V105.222H78.9705V112.449C81.7882 112.443 83.6021 112.36 85.6978 111.979L85.8563 113.294C83.6373 113.699 81.6943 113.787 78.6183 113.793H77.3856Z" fill="#9B9B9B"/>
</g>
<defs>
<clipPath id="clip0_2058_125">
<rect width="342" height="132" rx="10" fill="white"/>
</clipPath>
</defs>
</svg>
