<svg width="20" height="20" viewBox="0 0 20 20" fill="none" xmlns="http://www.w3.org/2000/svg">
<path d="M17.3978 12.9968L14.4513 11.4658C13.9397 11.2 13.3103 11.356 12.9821 11.83L12.1559 13.0232C11.2877 13.8915 9.29651 13.0117 8.14242 11.8576C6.98832 10.7035 6.1085 8.71235 6.97676 7.84409L8.17 7.01788C8.64397 6.68969 8.8 6.06027 8.53419 5.5487L7.00317 2.60218C6.75223 2.11923 6.19057 1.87312 5.68155 2.06574C0.996021 3.83882 1.77016 7.57638 2.70991 9.89245C3.34394 11.4551 4.35981 12.7151 5.82233 14.1777C7.28485 15.6402 8.54493 16.6561 10.1076 17.2901C12.4236 18.2298 16.1612 19.004 17.9343 14.3184C18.1269 13.8094 17.8808 13.2478 17.3978 12.9968Z" fill="#4E5058"/>
</svg>
