<svg width="40" height="40" viewBox="0 0 40 40" fill="none" xmlns="http://www.w3.org/2000/svg">
<circle cx="20" cy="20" r="20" fill="#EBEBEB"/>
<path fill-rule="evenodd" clip-rule="evenodd" d="M20.9974 11C20.9974 10.4477 20.5497 10 19.9974 10C19.4451 10 18.9974 10.4477 18.9974 11V19.0041H11C10.4477 19.0041 10 19.4518 10 20.0041C10 20.5563 10.4477 21.0041 11 21.0041H18.9974V29.0009C18.9974 29.5532 19.4451 30.0009 19.9974 30.0009C20.5497 30.0009 20.9974 29.5532 20.9974 29.0009V21.0041H29.001C29.5533 21.0041 30.001 20.5563 30.001 20.0041C30.001 19.4518 29.5533 19.0041 29.001 19.0041H20.9974V11Z" fill="#4E5058"/>
</svg>
