<svg width="32" height="32" viewBox="0 0 32 32" fill="none" xmlns="http://www.w3.org/2000/svg">
<circle cx="16" cy="16" r="16" fill="#EBEBEB"/>
<path d="M23.3978 18.9968L20.4513 17.4658C19.9397 17.2 19.3103 17.356 18.9821 17.83L18.1559 19.0232C17.2877 19.8915 15.2965 19.0117 14.1424 17.8576C12.9883 16.7035 12.1085 14.7123 12.9768 13.8441L14.17 13.0179C14.644 12.6897 14.8 12.0603 14.5342 11.5487L13.0032 8.60218C12.7522 8.11923 12.1906 7.87312 11.6816 8.06574C6.99602 9.83882 7.77016 13.5764 8.70991 15.8924C9.34394 17.4551 10.3598 18.7151 11.8223 20.1777C13.2849 21.6402 14.5449 22.6561 16.1076 23.2901C18.4236 24.2298 22.1612 25.004 23.9343 20.3184C24.1269 19.8094 23.8808 19.2478 23.3978 18.9968Z" fill="#4E5058"/>
</svg>
