<svg width="20" height="20" viewBox="0 0 20 20" fill="none" xmlns="http://www.w3.org/2000/svg">
<path d="M14.0557 2.15688C13.8465 1.94771 13.5074 1.94771 13.2982 2.15688L11.7904 3.66475C11.5812 3.87392 11.5812 4.21306 11.7904 4.42223L15.5778 8.20964C15.7869 8.41881 16.1261 8.41881 16.3353 8.20964L17.8431 6.70177C18.0523 6.49259 18.0523 6.15346 17.8431 5.94429L14.0557 2.15688Z" fill="#4E5058"/>
<path d="M14.8229 8.9645C15.0321 9.17368 15.0321 9.51281 14.8229 9.72198L8.07188 16.473C7.79657 16.7483 7.45145 16.9434 7.0736 17.0373L3.33054 17.9674C2.54701 18.1621 1.83787 17.453 2.03258 16.6695L2.96271 12.9264C3.0566 12.5485 3.25169 12.2034 3.52699 11.9281L10.278 5.1771C10.4872 4.96792 10.8263 4.96792 11.0355 5.1771L14.8229 8.9645Z" fill="#4E5058"/>
</svg>
