<svg width="24" height="24" viewBox="0 0 24 24" fill="none" xmlns="http://www.w3.org/2000/svg">
<path fill-rule="evenodd" clip-rule="evenodd" d="M12 10C14.2091 10 16 8.20914 16 6C16 3.79086 14.2091 2 12 2C9.79086 2 8 3.79086 8 6C8 8.20914 9.79086 10 12 10ZM12 11C6.87054 11 2.63658 14.8078 2.00902 19.7319C1.92037 20.4281 2.49773 21 3.1996 21C3.73257 21 4.20465 20.6651 4.4265 20.1804C4.47503 20.0741 4.5269 19.9657 4.58046 19.8604C4.65354 19.7169 4.72999 19.5794 4.80628 19.4615C5.07101 19.0527 5.51868 18.5954 5.84459 18.2865C5.99915 18.1397 6.24511 18.2511 6.24511 18.4643V21H17.7549V18.4643C17.7549 18.2511 18.0008 18.1397 18.1554 18.2865C18.4813 18.5954 18.929 19.0527 19.1937 19.4615C19.3259 19.6658 19.4588 19.9293 19.5735 20.1804C19.7953 20.6651 20.2674 21 20.8004 21C21.5023 21 22.0796 20.4281 21.991 19.7319C21.3634 14.8078 17.1295 11 12 11Z" fill="#060607"/>
</svg>
