<svg width="20" height="20" viewBox="0 0 20 20" fill="none" xmlns="http://www.w3.org/2000/svg">
<path fill-rule="evenodd" clip-rule="evenodd" d="M14 9C14 11.7614 11.7614 14 9 14C6.23858 14 4 11.7614 4 9C4 6.23858 6.23858 4 9 4C11.7614 4 14 6.23858 14 9ZM12.8745 13.5815C11.8291 14.4664 10.4769 15 9 15C5.68629 15 3 12.3137 3 9C3 5.68629 5.68629 3 9 3C12.3137 3 15 5.68629 15 9C15 10.4768 14.4664 11.829 13.5816 12.8744L13.7382 13.031L16.8534 16.1463C17.0487 16.3415 17.0487 16.6581 16.8534 16.8534C16.6582 17.0486 16.3416 17.0486 16.1463 16.8534L13.0311 13.7381L12.8745 13.5815Z" fill="#060607"/>
</svg>
