<svg width="20" height="20" viewBox="0 0 20 20" fill="none" xmlns="http://www.w3.org/2000/svg">
<path fill-rule="evenodd" clip-rule="evenodd" d="M12.7908 12.3931C12.7908 11.4654 13.4054 10.6804 14.2516 10.4191C12.9537 9.37427 11.2999 8.74823 9.49878 8.74823C5.65231 8.74823 2.47736 11.6036 2.00676 15.2961C1.94028 15.8182 2.37324 16.247 2.89956 16.247C3.29921 16.247 3.65322 15.9959 3.81958 15.6324C3.85597 15.5527 3.89487 15.4714 3.93503 15.3925C3.98984 15.2849 4.04716 15.1817 4.10437 15.0934C4.30288 14.7868 4.63858 14.4439 4.88297 14.2122C4.99888 14.1022 5.18332 14.1856 5.18332 14.3455V16.247H10.9582C10.5924 15.8745 10.367 15.365 10.367 14.8031C10.367 13.6618 11.2971 12.7366 12.4445 12.7366C12.6342 12.7366 12.7908 12.5828 12.7908 12.3931ZM12.4995 5.00023C12.4995 6.65721 11.1562 8.00046 9.49926 8.00046C7.84228 8.00046 6.49903 6.65721 6.49903 5.00023C6.49903 3.34325 7.84228 2 9.49926 2C11.1562 2 12.4995 3.34325 12.4995 5.00023ZM14.7486 11.4971C15.3009 11.4971 15.7486 11.9448 15.7486 12.4971V13.7449H16.9965C17.5488 13.7449 17.9965 14.1926 17.9965 14.7449C17.9965 15.2972 17.5488 15.7449 16.9965 15.7449H15.7486V17C15.7486 17.5523 15.3009 18 14.7486 18C14.1963 18 13.7486 17.5523 13.7486 17V15.7449H12.4936C11.9414 15.7449 11.4936 15.2972 11.4936 14.7449C11.4936 14.1926 11.9414 13.7449 12.4936 13.7449H13.7486V12.4971C13.7486 11.9448 14.1963 11.4971 14.7486 11.4971Z" fill="#4E5058"/>
</svg>
