<svg width="20" height="20" viewBox="0 0 20 20" fill="none" xmlns="http://www.w3.org/2000/svg">
<path fill-rule="evenodd" clip-rule="evenodd" d="M10.6845 16.4927C10.6845 16.4858 10.6898 16.4801 10.6967 16.4795C10.7787 16.4725 10.808 16.3657 10.7467 16.3109C10.301 15.9125 10.0206 15.3347 10.0206 14.6917C10.0206 13.49 11 12.5159 12.2081 12.5159C12.4078 12.5159 12.5727 12.3539 12.5727 12.1541C12.5727 10.9524 13.552 9.97826 14.7601 9.97826C15.1823 9.97826 15.5766 10.0972 15.9109 10.3033C16.3383 10.5669 17.2252 10.4876 17.2754 9.98796C17.2997 9.74626 17.3121 9.50107 17.3121 9.25296C17.3121 5.24726 14.0719 2 10.075 2C6.07807 2 2.83792 5.24726 2.83792 9.25296C2.83792 10.6382 3.22543 11.9328 3.89774 13.0337C3.98759 13.1809 3.9697 13.371 3.84777 13.4932L2.24187 15.1026C1.72515 15.6205 2.09111 16.5059 2.82187 16.5059H10.6712C10.6785 16.5059 10.6845 16.5 10.6845 16.4927ZM14.7486 11.4971C15.3009 11.4971 15.7486 11.9448 15.7486 12.4971V13.7449H16.9965C17.5488 13.7449 17.9965 14.1926 17.9965 14.7449C17.9965 15.2971 17.5488 15.7449 16.9965 15.7449H15.7486V17C15.7486 17.5523 15.3009 18 14.7486 18C14.1963 18 13.7486 17.5523 13.7486 17V15.7449H12.4936C11.9414 15.7449 11.4936 15.2971 11.4936 14.7449C11.4936 14.1926 11.9414 13.7449 12.4936 13.7449H13.7486V12.4971C13.7486 11.9448 14.1963 11.4971 14.7486 11.4971Z" fill="#4E5058"/>
</svg>
