<svg width="24" height="24" viewBox="0 0 24 24" fill="none" xmlns="http://www.w3.org/2000/svg">
<path fill-rule="evenodd" clip-rule="evenodd" d="M12.9974 3C12.9974 2.44772 12.5496 2 11.9974 2C11.4451 2 10.9974 2.44772 10.9974 3V11.0041H3.00002C2.44773 11.0041 2.00002 11.4518 2.00002 12.0041C2.00002 12.5563 2.44773 13.0041 3.00002 13.0041H10.9974V21.0009C10.9974 21.5532 11.4451 22.0009 11.9974 22.0009C12.5496 22.0009 12.9974 21.5532 12.9974 21.0009V13.0041H21.001C21.5532 13.0041 22.001 12.5563 22.001 12.0041C22.001 11.4518 21.5532 11.0041 21.001 11.0041H12.9974V3Z" fill="#4E5058"/>
</svg>
