<svg width="24" height="24" viewBox="0 0 24 24" fill="none" xmlns="http://www.w3.org/2000/svg">
<path fill-rule="evenodd" clip-rule="evenodd" d="M12 23C18.0751 23 23 18.0751 23 12C23 5.92487 18.0751 1 12 1C5.92487 1 1 5.92487 1 12C1 18.0751 5.92487 23 12 23ZM6.5 13C7.32843 13 8 12.3284 8 11.5C8 10.6716 7.32843 10 6.5 10C5.67157 10 5 10.6716 5 11.5C5 12.3284 5.67157 13 6.5 13ZM17.5 13C18.3284 13 19 12.3284 19 11.5C19 10.6716 18.3284 10 17.5 10C16.6716 10 16 10.6716 16 11.5C16 12.3284 16.6716 13 17.5 13ZM6.86093 14.2549C7.27245 13.8865 7.90465 13.9216 8.27298 14.3331C9.18994 15.3576 10.5193 16 12.0001 16C13.4808 16 14.8102 15.3576 15.7271 14.3331C16.0955 13.9216 16.7277 13.8865 17.1392 14.2549C17.5507 14.6232 17.5857 15.2554 17.2174 15.6669C15.9371 17.0974 14.0733 18 12.0001 18C9.92679 18 8.06302 17.0974 6.78271 15.6669C6.41438 15.2554 6.4494 14.6232 6.86093 14.2549Z" fill="#4E5058"/>
</svg>
