<svg width="32" height="31" viewBox="0 0 32 31" fill="none" xmlns="http://www.w3.org/2000/svg">
<g clip-path="url(#clip0_4_1249)">
<path d="M25.1733 26.4017C24.6667 26.8538 24 27.0992 23.32 27.125C21.4667 27.125 17.56 26.0271 11.3333 20.0467C5.12 14.0663 4.04 10.2429 4 8.51212C4 7.85337 4.27998 7.22044 4.73332 6.72961L6.93335 4.61126C7.18668 4.35292 7.49334 4.15916 7.84001 4.02999C8.20001 3.90083 8.56002 3.86209 8.93335 3.88793C9.29335 3.91376 9.64 4.03001 9.96 4.21084C10.28 4.39168 10.5467 4.63709 10.7467 4.93417L12.5333 7.38829C12.7067 7.67246 12.8267 7.99542 12.8534 8.31834C12.8534 8.65417 12.8 8.97708 12.6667 9.28708L11.4 11.5087C11.32 11.6766 11.28 11.8704 11.28 12.0642C11.28 12.2579 11.32 12.4388 11.4 12.6196C12.2 14.1825 13.2933 15.5904 14.64 16.7529C15.8533 18.0575 17.2933 19.1167 18.92 19.8788C19.0933 19.9563 19.3067 19.995 19.5067 19.995C19.6933 19.995 19.9067 19.9563 20.08 19.8788L22.3867 18.7292C22.6933 18.5871 23.04 18.5225 23.3733 18.5483C23.72 18.5612 24.0533 18.6646 24.3333 18.8455L26.88 20.5892C27.1867 20.7829 27.4533 21.0413 27.64 21.3513C27.8133 21.6613 27.9467 21.9971 27.9733 22.3458C28.0133 22.6946 27.9733 23.0562 27.8267 23.3921C27.68 23.7279 27.48 24.025 27.2133 24.2704L25.1733 26.4017Z" fill="#E3E4EB"/>
</g>
<defs>
<clipPath id="clip0_4_1249">
<rect width="32" height="31" fill="white"/>
</clipPath>
</defs>
</svg>
