<svg width="30" height="30" viewBox="0 0 30 30" fill="none" xmlns="http://www.w3.org/2000/svg">
<g clip-path="url(#clip0_307_475)">
<path d="M23.6 25.55C23.125 25.9875 22.5 26.225 21.8625 26.25C20.125 26.25 16.4625 25.1875 10.625 19.4C4.8 13.6125 3.7875 9.91252 3.75 8.23752C3.75 7.60002 4.01248 6.98752 4.43748 6.51252L6.50002 4.4625C6.73752 4.2125 7.02501 4.02498 7.35001 3.89998C7.68751 3.77498 8.02502 3.7375 8.37502 3.7625C8.71252 3.7875 9.0375 3.9 9.3375 4.075C9.6375 4.25 9.8875 4.4875 10.075 4.775L11.75 7.14995C11.9125 7.42495 12.025 7.73749 12.05 8.04999C12.05 8.37499 12 8.68749 11.875 8.98749L10.6875 11.1375C10.6125 11.3 10.575 11.4875 10.575 11.675C10.575 11.8625 10.6125 12.0375 10.6875 12.2125C11.4375 13.725 12.4625 15.0875 13.725 16.2125C14.8625 17.475 16.2125 18.5 17.7375 19.2375C17.9 19.3125 18.1 19.35 18.2875 19.35C18.4625 19.35 18.6625 19.3125 18.825 19.2375L20.9875 18.125C21.275 17.9875 21.6 17.925 21.9125 17.95C22.2375 17.9625 22.55 18.0625 22.8125 18.2375L25.2 19.925C25.4875 20.1125 25.7375 20.3625 25.9125 20.6625C26.075 20.9625 26.2 21.2875 26.225 21.625C26.2625 21.9625 26.225 22.3125 26.0875 22.6375C25.95 22.9625 25.7625 23.25 25.5125 23.4875L23.6 25.55Z" fill="#E3E4EB"/>
</g>
<defs>
<clipPath id="clip0_307_475">
<rect width="30" height="30" fill="white"/>
</clipPath>
</defs>
</svg>
