<svg width="30" height="29" viewBox="0 0 30 29" fill="none" xmlns="http://www.w3.org/2000/svg">
<g clip-path="url(#clip0_270_1282)">
<path d="M26.1 16.3488C25.3375 20.8679 21.85 24.3237 17.2125 25.1696C14.6625 25.6408 12.25 25.2663 10.1625 24.3238C9.81252 24.1546 9.2625 24.0942 8.8875 24.1667C8.1125 24.3479 6.78749 24.6621 5.67499 24.9037C4.59999 25.1575 3.93751 24.5171 4.21251 23.49L4.97499 20.3967C5.06249 20.0342 4.97498 19.4904 4.81248 19.1521C3.86248 17.2308 3.48748 14.9954 3.87498 12.6513C4.62498 8.15626 8.40003 4.50707 13.0625 3.7579C20.7625 2.56165 27.325 8.89332 26.0625 16.3367L26.1 16.3488Z" fill="#1F1F1F"/>
</g>
<defs>
<clipPath id="clip0_270_1282">
<rect width="30" height="29" fill="white"/>
</clipPath>
</defs>
</svg>
