<svg width="30" height="29" viewBox="0 0 30 29" fill="none" xmlns="http://www.w3.org/2000/svg">
<g clip-path="url(#clip0_28_817)">
<path d="M26.1001 16.3486C25.3376 20.8678 21.8501 24.3236 17.2126 25.1694C14.6626 25.6407 12.2501 25.2661 10.1626 24.3236C9.81258 24.1545 9.26256 24.094 8.88756 24.1665C8.11256 24.3478 6.78755 24.6619 5.67505 24.9036C4.60005 25.1574 3.93757 24.517 4.21257 23.4899L4.97505 20.3966C5.06255 20.0341 4.97505 19.4903 4.81255 19.152C3.86255 17.2307 3.48755 14.9953 3.87505 12.6511C4.62505 8.15613 8.40009 4.50695 13.0626 3.75778C20.7626 2.56153 27.325 8.8932 26.0625 16.3365L26.1001 16.3486Z" fill="#E3E4EB"/>
</g>
<defs>
<clipPath id="clip0_28_817">
<rect width="30" height="29" fill="white"/>
</clipPath>
</defs>
</svg>
