<svg width="32" height="32" viewBox="0 0 32 32" fill="none" xmlns="http://www.w3.org/2000/svg">
<g id="Frame 20">
<path id="Vector" d="M25.3281 7.83911H21.9543L20.2891 5.3395C20.2247 5.2431 20.1376 5.16409 20.0354 5.1095C19.9331 5.05492 19.819 5.02644 19.7031 5.02661H12.2031C12.0872 5.02644 11.9731 5.05492 11.8709 5.1095C11.7687 5.16409 11.6815 5.2431 11.6172 5.3395L9.95078 7.83911H6.57812C5.89436 7.83911 5.23861 8.11073 4.75512 8.59423C4.27162 9.07772 4 9.73348 4 10.4172V23.5422C4 24.226 4.27162 24.8818 4.75512 25.3652C5.23861 25.8487 5.89436 26.1204 6.57812 26.1204H25.3281C26.0119 26.1204 26.6676 25.8487 27.1511 25.3652C27.6346 24.8818 27.9062 24.226 27.9062 23.5422V10.4172C27.9062 9.73348 27.6346 9.07772 27.1511 8.59423C26.6676 8.11073 26.0119 7.83911 25.3281 7.83911ZM26.5 23.5422C26.5 23.853 26.3765 24.1511 26.1568 24.3709C25.937 24.5906 25.6389 24.7141 25.3281 24.7141H6.57812C6.26732 24.7141 5.96925 24.5906 5.74948 24.3709C5.52972 24.1511 5.40625 23.853 5.40625 23.5422V10.4172C5.40625 10.1064 5.52972 9.80837 5.74948 9.5886C5.96925 9.36883 6.26732 9.24536 6.57812 9.24536H10.3281C10.444 9.24553 10.5581 9.21706 10.6604 9.16247C10.7626 9.10788 10.8497 9.02887 10.9141 8.93247L12.5793 6.43286H19.3258L20.9922 8.93247C21.0565 9.02887 21.1437 9.10788 21.2459 9.16247C21.3481 9.21706 21.4622 9.24553 21.5781 9.24536H25.3281C25.6389 9.24536 25.937 9.36883 26.1568 9.5886C26.3765 9.80837 26.5 10.1064 26.5 10.4172V23.5422ZM20.4062 16.9797C20.4062 17.1662 20.3322 17.3451 20.2003 17.4769C20.0684 17.6088 19.8896 17.6829 19.7031 17.6829H16.6562V20.7297C16.6562 20.9162 16.5822 21.0951 16.4503 21.2269C16.3184 21.3588 16.1396 21.4329 15.9531 21.4329C15.7666 21.4329 15.5878 21.3588 15.4559 21.2269C15.3241 21.0951 15.25 20.9162 15.25 20.7297V17.6829H12.2031C12.0166 17.6829 11.8378 17.6088 11.7059 17.4769C11.5741 17.3451 11.5 17.1662 11.5 16.9797C11.5 16.7933 11.5741 16.6144 11.7059 16.4826C11.8378 16.3507 12.0166 16.2766 12.2031 16.2766H15.25V13.2297C15.25 13.0433 15.3241 12.8644 15.4559 12.7326C15.5878 12.6007 15.7666 12.5266 15.9531 12.5266C16.1396 12.5266 16.3184 12.6007 16.4503 12.7326C16.5822 12.8644 16.6562 13.0433 16.6562 13.2297V16.2766H19.7031C19.8896 16.2766 20.0684 16.3507 20.2003 16.4826C20.3322 16.6144 20.4062 16.7933 20.4062 16.9797Z" fill="#3478F6"/>
</g>
</svg>
