<svg width="20" height="21" viewBox="0 0 20 21" fill="none" xmlns="http://www.w3.org/2000/svg">
<g id="Edit Icon">
<path id="Shape" fill-rule="evenodd" clip-rule="evenodd" d="M19.0142 2.1696C19.2321 1.87599 19.2079 1.45933 18.9416 1.19306C18.6487 0.900165 18.1739 0.900165 17.881 1.19306L17.4672 1.60685L18.5278 2.66751L18.9416 2.25372L19.0142 2.1696ZM16.9368 2.13718L17.9975 3.19784L8.25443 12.9409C7.4618 13.7335 6.44526 14.0697 6.21181 13.9742L6.18033 13.9543C6.03745 13.8115 6.32213 12.8347 7.05903 12.0218L7.19377 11.8802L16.9368 2.13718ZM2.75 2.63112H12.25C12.6642 2.63112 13 2.96691 13 3.38112C13 3.76082 12.7178 4.07462 12.3518 4.12428L12.25 4.13112H2.75C2.10279 4.13112 1.57047 4.623 1.50645 5.25332L1.5 5.38112V17.3811C1.5 18.0283 1.99187 18.5607 2.62219 18.6247L2.75 18.6311H14.75C15.3972 18.6311 15.9295 18.1392 15.9935 17.5089L16 17.3811V7.73666C16 7.32244 16.3358 6.98666 16.75 6.98666C17.1297 6.98666 17.4435 7.26881 17.4932 7.63489L17.5 7.73666V17.3811C17.5 18.8437 16.3583 20.0395 14.9175 20.1261L14.75 20.1311H2.75C1.28747 20.1311 0.0915957 18.9894 0.00501879 17.5486L0 17.3811V5.38112C0 3.91859 1.1417 2.72272 2.58248 2.63614L2.75 2.63112Z" fill="#3478F6"/>
</g>
</svg>
