
<svg width="30" height="30" viewBox="0 0 30 30" fill="none" xmlns="http://www.w3.org/2000/svg">
<g id="ph:smiley-light">
<path id="Vector" d="M20.1587 18.1641C19.0281 20.175 17.1511 21.3281 15.0086 21.3281C12.866 21.3281 10.989 20.175 9.85844 18.1641C9.77669 18.0034 9.75848 17.8164 9.80762 17.6422C9.85676 17.4681 9.96945 17.3202 10.1221 17.2294C10.2748 17.1386 10.4557 17.1121 10.627 17.1552C10.7983 17.1984 10.9468 17.3079 11.0414 17.4609C11.9349 19.0477 13.3435 19.9219 15.0086 19.9219C16.6736 19.9219 18.0856 19.0477 18.9757 17.4609C19.0185 17.3769 19.0773 17.3026 19.1487 17.2426C19.2201 17.1826 19.3025 17.138 19.3911 17.1116C19.4797 17.0851 19.5725 17.0774 19.6641 17.0889C19.7556 17.1003 19.844 17.1307 19.9238 17.1781C20.0037 17.2256 20.0733 17.2891 20.1287 17.365C20.184 17.4409 20.2238 17.5275 20.2458 17.6196C20.2677 17.7117 20.2713 17.8074 20.2563 17.901C20.2414 17.9945 20.2081 18.084 20.1587 18.1641ZM26.6331 15C26.6331 17.3641 25.9513 19.6751 24.674 21.6408C23.3967 23.6065 21.5812 25.1385 19.4571 26.0432C17.333 26.948 14.9957 27.1847 12.7407 26.7234C10.4858 26.2622 8.4145 25.1238 6.78878 23.4521C5.16306 21.7805 4.05593 19.6506 3.6074 17.3319C3.15887 15.0133 3.38907 12.6099 4.2689 10.4257C5.14873 8.24159 6.63868 6.37477 8.55032 5.06134C10.462 3.74791 12.7094 3.04688 15.0086 3.04688C18.0905 3.0506 21.0451 4.31114 23.2243 6.55198C25.4036 8.79281 26.6295 11.831 26.6331 15ZM25.2655 15C25.2655 12.914 24.6639 10.8749 23.5369 9.14047C22.4098 7.40605 20.8079 6.05423 18.9337 5.25596C17.0595 4.45769 14.9972 4.24883 13.0075 4.65578C11.0179 5.06273 9.19027 6.06723 7.75581 7.54223C6.32136 9.01724 5.34448 10.8965 4.94871 12.9424C4.55295 14.9883 4.75607 17.1089 5.53239 19.0361C6.30871 20.9633 7.62337 22.6105 9.31011 23.7694C10.9969 24.9283 12.9799 25.5469 15.0086 25.5469C17.7279 25.5438 20.3351 24.4316 22.258 22.4543C24.1809 20.4771 25.2625 17.7963 25.2655 15ZM10.9058 13.8281C11.1312 13.8281 11.3515 13.7594 11.5389 13.6306C11.7264 13.5019 11.8724 13.3188 11.9587 13.1047C12.0449 12.8906 12.0675 12.655 12.0235 12.4276C11.9796 12.2003 11.871 11.9915 11.7116 11.8276C11.5523 11.6637 11.3492 11.5521 11.1281 11.5069C10.907 11.4617 10.6779 11.4849 10.4697 11.5736C10.2614 11.6623 10.0834 11.8125 9.95819 12.0052C9.83297 12.1979 9.76613 12.4245 9.76613 12.6562C9.76613 12.9671 9.8862 13.2651 10.0999 13.4849C10.3137 13.7047 10.6035 13.8281 10.9058 13.8281ZM19.1113 11.4844C18.8859 11.4844 18.6656 11.5531 18.4782 11.6819C18.2907 11.8106 18.1447 11.9937 18.0584 12.2078C17.9722 12.4219 17.9496 12.6575 17.9936 12.8849C18.0375 13.1122 18.1461 13.321 18.3055 13.4849C18.4648 13.6488 18.6679 13.7604 18.889 13.8056C19.1101 13.8508 19.3392 13.8276 19.5475 13.7389C19.7557 13.6502 19.9337 13.5 20.0589 13.3073C20.1841 13.1146 20.251 12.888 20.251 12.6562C20.251 12.3454 20.1309 12.0474 19.9172 11.8276C19.7035 11.6078 19.4136 11.4844 19.1113 11.4844Z" fill="#BAB9BD"/>
</g>
</svg>
