<svg width="58" height="35" viewBox="0 0 58 35" fill="none" xmlns="http://www.w3.org/2000/svg">
<g id="ic_friend">
<path id="Icon" fill-rule="evenodd" clip-rule="evenodd" d="M28.5 5C35.4036 5 41 10.5964 41 17.5C41 24.4036 35.4036 30 28.5 30C21.5964 30 16 24.4036 16 17.5C16 10.5964 21.5964 5 28.5 5ZM28.5 20.9999C25.7103 20.9999 23.1429 21.5 21.1051 23.5507C20.7625 23.8954 20.6448 24.4877 21.0171 24.8659C22.9217 26.8005 25.5708 28 28.5 28C31.4297 28 34.0791 26.8002 35.9839 24.8644C36.3562 24.486 36.2382 23.8938 35.8953 23.549C33.8574 21.5 31.2899 20.9999 28.5 20.9999ZM24.5 14C24.5 11.7909 26.2909 10 28.5 10C30.7091 10 32.5 11.7909 32.5 14C32.5 16.2091 30.7091 18 28.5 18C26.2909 18 24.5 16.2091 24.5 14Z" fill="#BAB9BD"/>
</g>
</svg>
