<svg width="32" height="32" viewBox="0 0 32 32" fill="none" xmlns="http://www.w3.org/2000/svg">
<g id="Frame 19">
<path id="Vector" d="M27.4895 9.74431L22.2523 4.5072C22.1 4.35483 21.9191 4.23397 21.7201 4.15151C21.521 4.06905 21.3077 4.02661 21.0922 4.02661C20.8767 4.02661 20.6634 4.06905 20.4643 4.15151C20.2653 4.23397 20.0844 4.35483 19.932 4.5072L5.48047 18.9576C5.32782 19.1097 5.20677 19.2905 5.12431 19.4897C5.04185 19.6888 4.9996 19.9022 5 20.1177V25.3549C5 25.79 5.17285 26.2073 5.48053 26.515C5.78821 26.8226 6.20551 26.9955 6.64063 26.9955H26.3281C26.5146 26.9955 26.6935 26.9214 26.8253 26.7895C26.9572 26.6577 27.0313 26.4788 27.0313 26.2924C27.0313 26.1059 26.9572 25.927 26.8253 25.7952C26.6935 25.6633 26.5146 25.5892 26.3281 25.5892H13.9637L27.4895 12.0646C27.6418 11.9123 27.7627 11.7314 27.8451 11.5323C27.9276 11.3333 27.97 11.1199 27.97 10.9045C27.97 10.689 27.9276 10.4756 27.8451 10.2766C27.7627 10.0775 27.6418 9.89666 27.4895 9.74431ZM9.9793 23.0111L20.2344 12.7549L22.5219 15.0424L12.2656 25.2974L9.9793 23.0111ZM8.98438 22.0174L6.69805 19.7299L16.9531 9.47478L19.2406 11.7611L8.98438 22.0174ZM6.40625 25.3549V21.4267L10.5688 25.5892H6.64063C6.57847 25.5892 6.51885 25.5645 6.4749 25.5206C6.43095 25.4766 6.40625 25.417 6.40625 25.3549ZM26.4945 11.0697L23.5156 14.0486L17.9481 8.47985L20.9258 5.50212C20.9476 5.48033 20.9734 5.46304 21.0019 5.45125C21.0303 5.43945 21.0608 5.43338 21.0916 5.43338C21.1224 5.43338 21.1529 5.43945 21.1814 5.45125C21.2098 5.46304 21.2357 5.48033 21.2574 5.50212L26.4945 10.7381C26.5163 10.7598 26.5336 10.7857 26.5454 10.8141C26.5572 10.8426 26.5633 10.8731 26.5633 10.9039C26.5633 10.9347 26.5572 10.9652 26.5454 10.9936C26.5336 11.0221 26.5163 11.0479 26.4945 11.0697Z" fill="#3478F6"/>
</g>
</svg>
