<svg width="58" height="36" viewBox="0 0 58 36" fill="none" xmlns="http://www.w3.org/2000/svg">
<g id="ic_friend">
<path id="Icon" fill-rule="evenodd" clip-rule="evenodd" d="M28.5 5.18799C35.4036 5.18799 41 10.7844 41 17.688C41 24.5916 35.4036 30.188 28.5 30.188C21.5964 30.188 16 24.5916 16 17.688C16 10.7844 21.5964 5.18799 28.5 5.18799ZM28.5 21.1879C25.7103 21.1879 23.1429 21.688 21.1051 23.7387C20.7625 24.0834 20.6448 24.6757 21.0171 25.0539C22.9217 26.9885 25.5708 28.188 28.5 28.188C31.4297 28.188 34.0791 26.9882 35.9839 25.0524C36.3562 24.674 36.2382 24.0818 35.8953 23.737C33.8574 21.688 31.2899 21.1879 28.5 21.1879ZM24.5 14.188C24.5 11.9788 26.2909 10.188 28.5 10.188C30.7091 10.188 32.5 11.9788 32.5 14.188C32.5 16.3971 30.7091 18.188 28.5 18.188C26.2909 18.188 24.5 16.3971 24.5 14.188Z" fill="current"/>
</g>
</svg>
