<svg width="15" height="15" viewBox="0 0 15 15" fill="none" xmlns="http://www.w3.org/2000/svg">
<g id="Icon">
<path id="Shape" fill-rule="evenodd" clip-rule="evenodd" d="M10.0143 8.82197C11.6569 6.66636 11.4913 3.57862 9.51764 1.61091C7.36324 -0.536971 3.87028 -0.536971 1.71589 1.61091C-0.4385 3.7588 -0.4385 7.2412 1.71589 9.38909C3.68981 11.357 6.78743 11.5219 8.94961 9.88366L12.9057 13.8275L12.9827 13.8947C13.2776 14.1184 13.7002 14.096 13.9695 13.8275C14.2633 13.5346 14.2633 13.0598 13.9695 12.7669L10.0143 8.82197ZM2.42514 2.31802C4.18783 0.56066 7.0457 0.56066 8.80839 2.31802C10.5711 4.07538 10.5711 6.92462 8.80839 8.68198C7.0457 10.4393 4.18783 10.4393 2.42514 8.68198C0.662457 6.92462 0.662457 4.07538 2.42514 2.31802Z" fill="#BAB9BD"/>
</g>
</svg>
