<svg width="22" height="20" viewBox="0 0 22 20" fill="none" xmlns="http://www.w3.org/2000/svg">
<path d="M4.56239 1.50411L1.73255 4.71438C0.740915 5.7077 -0.0722252 10.6556 6.10738 15.5213C12.1201 20.2557 15.9251 19.2981 17.4816 18.3167C17.5534 18.2714 17.6162 18.2152 17.6724 18.1515L20.4193 15.0353C20.6019 14.8281 20.582 14.5122 20.3748 14.3296L17.6415 11.9201C17.4338 11.7371 17.117 11.7576 16.9347 11.9658L14.5138 14.7302C14.4021 14.8577 14.2333 14.9213 14.0667 14.8901C9.82813 14.0953 6.08081 9.20789 5.77825 7.56276C5.75597 7.44163 5.80362 7.3239 5.88506 7.23151L8.14776 4.66462C8.33036 4.45747 8.31046 4.14152 8.10331 3.95891L5.2681 1.45966C5.06095 1.27706 4.74499 1.29696 4.56239 1.50411Z" stroke="black" stroke-width="1.3"/>
</svg>
