<svg width="42" height="41" viewBox="0 0 42 41" fill="none" xmlns="http://www.w3.org/2000/svg">
<ellipse cx="20.6092" cy="20.2412" rx="20.6092" ry="20.2412" fill="#D5E3FD"/>
<path d="M20.5442 20.6216C16.8791 20.6317 15.4132 23.4242 14.9343 25.5649C14.8056 26.1402 15.2739 26.6491 15.864 26.6475L24.8563 26.6225C25.4133 26.621 25.8621 26.1629 25.7688 25.6135C25.4198 23.5594 24.0826 20.6119 20.5442 20.6216Z" fill="white" stroke="#F7F9FC" stroke-width="1.3"/>
<path d="M23.0974 16.515C23.1016 17.9331 21.8981 19.133 20.3508 19.1381C18.8036 19.1433 17.5929 17.9514 17.5887 16.5332C17.5845 15.1151 18.7881 13.9152 20.3353 13.9101C21.8825 13.905 23.0932 15.0968 23.0974 16.515Z" fill="white" stroke="#F7F9FC" stroke-width="1.3"/>
</svg>
