<svg width="18" height="18" viewBox="0 0 18 18" fill="none" xmlns="http://www.w3.org/2000/svg">
<path d="M17.787 17.787C17.9235 17.65 18.0002 17.4644 18.0002 17.271C18.0002 17.0776 17.9235 16.892 17.787 16.755L12.53 11.5C13.553 10.2444 14.1105 8.67365 14.108 7.054C14.1058 5.18381 13.362 3.39083 12.0395 2.06841C10.7171 0.745984 8.92414 0.00211739 7.05395 0C5.18377 0.00211739 3.39078 0.745984 2.06836 2.06841C0.745938 3.39083 0.00207162 5.18381 -4.57764e-05 7.054C0.00207162 8.92419 0.745938 10.7172 2.06836 12.0396C3.39078 13.362 5.18377 14.1059 7.05395 14.108C8.6736 14.1106 10.2443 13.5531 11.5 12.53L16.757 17.787C16.8934 17.9232 17.0782 17.9997 17.271 18C17.3667 18.0001 17.4616 17.9814 17.5501 17.9448C17.6387 17.9083 17.7192 17.8547 17.787 17.787ZM12.649 7.054C12.6474 8.53713 12.0575 9.95907 11.0088 11.0078C9.96002 12.0565 8.53809 12.6464 7.05495 12.648C5.57165 12.6467 4.14946 12.0569 3.10051 11.0082C2.05156 9.95939 1.46154 8.53731 1.45995 7.054C1.46154 5.57087 2.05142 4.14893 3.10015 3.1002C4.14889 2.05146 5.57082 1.46159 7.05395 1.46C8.53726 1.46132 9.95945 2.05108 11.0084 3.09985C12.0574 4.14861 12.6474 5.57069 12.649 7.054Z" fill="#0E0D0D"/>
<path d="M6.99994 4V6.5L9.49994 8.5" stroke="#0E0D0D" stroke-width="1.3" stroke-linecap="round" stroke-linejoin="round"/>
</svg>
