<svg width="32" height="32" viewBox="0 0 32 32" fill="none" xmlns="http://www.w3.org/2000/svg">
<path d="M8.5 23.5V11C8.5 10.5417 8.66306 10.1495 8.98917 9.82337C9.31583 9.49671 9.70833 9.33337 10.1667 9.33337H20.1667C20.625 9.33337 21.0175 9.49671 21.3442 9.82337C21.6703 10.1495 21.8333 10.5417 21.8333 11V15.2292C21.6944 15.2014 21.5592 15.1839 21.4275 15.1767C21.2953 15.17 21.1528 15.1667 21 15.1667C20.8472 15.1667 20.705 15.17 20.5733 15.1767C20.4411 15.1839 20.3056 15.2014 20.1667 15.2292V11H10.1667V19.4792L10.3125 19.3334H16.0625C16.0347 19.4723 16.0172 19.6078 16.01 19.74C16.0033 19.8717 16 20.0139 16 20.1667C16 20.3195 16.0033 20.4617 16.01 20.5934C16.0172 20.7256 16.0347 20.8612 16.0625 21H11L8.5 23.5ZM11.8333 14.3334V12.6667H18.5V14.3334H11.8333ZM11.8333 17.6667V16H16V17.6667H11.8333ZM20.1667 23.5V21H17.6667V19.3334H20.1667V16.8334H21.8333V19.3334H24.3333V21H21.8333V23.5H20.1667Z" fill="#111111"/>
</svg>
