<svg width="34" height="34" viewBox="0 0 34 34" fill="none" xmlns="http://www.w3.org/2000/svg">
<path d="M20.15 16.0999C20.8956 16.0999 21.5 15.4955 21.5 14.7499C21.5 14.0043 20.8956 13.3999 20.15 13.3999C19.4044 13.3999 18.8 14.0043 18.8 14.7499C18.8 15.4955 19.4044 16.0999 20.15 16.0999Z" fill="#777777"/>
<path d="M13.85 16.0999C14.5956 16.0999 15.2 15.4955 15.2 14.7499C15.2 14.0043 14.5956 13.3999 13.85 13.3999C13.1044 13.3999 12.5 14.0043 12.5 14.7499C12.5 15.4955 13.1044 16.0999 13.85 16.0999Z" fill="#777777"/>
<path d="M17 22.4C19.052 22.4 20.798 20.906 21.5 18.8H12.5C13.202 20.906 14.948 22.4 17 22.4Z" fill="#777777"/>
<path d="M16.991 8C12.023 8 8 12.032 8 17C8 21.968 12.023 26 16.991 26C21.968 26 26 21.968 26 17C26 12.032 21.968 8 16.991 8ZM17 24.2C13.022 24.2 9.8 20.978 9.8 17C9.8 13.022 13.022 9.8 17 9.8C20.978 9.8 24.2 13.022 24.2 17C24.2 20.978 20.978 24.2 17 24.2Z" fill="#777777"/>
</svg>
