<svg width="100" height="32" viewBox="0 0 100 32" fill="none" xmlns="http://www.w3.org/2000/svg">
<path d="M18.9167 17.6667H18.2583L18.025 17.4417C18.8417 16.4917 19.3333 15.2583 19.3333 13.9167C19.3333 10.925 16.9083 8.5 13.9167 8.5C10.925 8.5 8.5 10.925 8.5 13.9167C8.5 16.9083 10.925 19.3333 13.9167 19.3333C15.2583 19.3333 16.4917 18.8417 17.4417 18.025L17.6667 18.2583V18.9167L21.8333 23.075L23.075 21.8333L18.9167 17.6667ZM13.9167 17.6667C11.8417 17.6667 10.1667 15.9917 10.1667 13.9167C10.1667 11.8417 11.8417 10.1667 13.9167 10.1667C15.9917 10.1667 17.6667 11.8417 17.6667 13.9167C17.6667 15.9917 15.9917 17.6667 13.9167 17.6667Z" fill="#111111"/>
<g clip-path="url(#clip0_92_368)">
<path d="M42.0187 20.8644L41.8397 21.5H42.5H52.5H53.1756L52.9782 20.8539C52.9176 20.6558 52.7833 20.501 52.6665 20.3914C52.541 20.2737 52.386 20.1627 52.217 20.0596C51.878 19.8528 51.4362 19.6498 50.9416 19.4713C49.9537 19.1149 48.6914 18.8333 47.5 18.8333C46.3042 18.8333 45.0376 19.117 44.0487 19.4746C43.5536 19.6536 43.112 19.8568 42.7742 20.0634C42.606 20.1663 42.4515 20.2773 42.3269 20.3952C42.2116 20.5042 42.0759 20.6615 42.0187 20.8644ZM56.6666 15.5H56.1666V16V18H55.5V16V15.5H55H53V14.8333H55H55.5V14.3333V12.3333H56.1666V14.3333V14.8333H56.6666H58.6666V15.5H56.6666ZM47.5 9.83331C49.0655 9.83331 50.3333 11.1011 50.3333 12.6666C50.3333 14.2322 49.0655 15.5 47.5 15.5C45.9345 15.5 44.6666 14.2322 44.6666 12.6666C44.6666 11.1011 45.9345 9.83331 47.5 9.83331ZM47.5 14.8333C48.6928 14.8333 49.6666 13.8595 49.6666 12.6666C49.6666 11.4738 48.6928 10.5 47.5 10.5C46.3072 10.5 45.3333 11.4738 45.3333 12.6666C45.3333 13.8595 46.3072 14.8333 47.5 14.8333ZM53.6666 21V22.1666H41.3333V21C41.3333 20.6295 41.515 20.2679 41.9012 19.9114C42.2908 19.5518 42.8545 19.2321 43.5182 18.9662C44.8465 18.4341 46.45 18.1666 47.5 18.1666C48.55 18.1666 50.1534 18.4341 51.4818 18.9662C52.1455 19.2321 52.7091 19.5518 53.0988 19.9114C53.485 20.2679 53.6666 20.6295 53.6666 21Z" fill="#111111" stroke="#111111"/>
</g>
<g clip-path="url(#clip1_92_368)">
<mask id="path-3-inside-1_92_368" fill="white">
<path d="M90.1917 16.8167C90.225 16.55 90.25 16.2834 90.25 16C90.25 15.7167 90.225 15.45 90.1917 15.1834L91.95 13.8084C92.1083 13.6834 92.15 13.4584 92.05 13.275L90.3833 10.3917C90.3083 10.2584 90.1667 10.1834 90.0167 10.1834C89.9667 10.1834 89.9167 10.1917 89.875 10.2084L87.8 11.0417C87.3667 10.7084 86.9 10.4334 86.3917 10.225L86.075 8.01669C86.05 7.81669 85.875 7.66669 85.6667 7.66669H82.3333C82.125 7.66669 81.95 7.81669 81.925 8.01669L81.6083 10.225C81.1 10.4334 80.6333 10.7167 80.2 11.0417L78.125 10.2084C78.075 10.1917 78.025 10.1834 77.975 10.1834C77.8333 10.1834 77.6917 10.2584 77.6167 10.3917L75.95 13.275C75.8417 13.4584 75.8917 13.6834 76.05 13.8084L77.8083 15.1834C77.775 15.45 77.75 15.725 77.75 16C77.75 16.275 77.775 16.55 77.8083 16.8167L76.05 18.1917C75.8917 18.3167 75.85 18.5417 75.95 18.725L77.6167 21.6084C77.6917 21.7417 77.8333 21.8167 77.9833 21.8167C78.0333 21.8167 78.0833 21.8084 78.125 21.7917L80.2 20.9584C80.6333 21.2917 81.1 21.5667 81.6083 21.775L81.925 23.9834C81.95 24.1834 82.125 24.3334 82.3333 24.3334H85.6667C85.875 24.3334 86.05 24.1834 86.075 23.9834L86.3917 21.775C86.9 21.5667 87.3667 21.2834 87.8 20.9584L89.875 21.7917C89.925 21.8084 89.975 21.8167 90.025 21.8167C90.1667 21.8167 90.3083 21.7417 90.3833 21.6084L92.05 18.725C92.15 18.5417 92.1083 18.3167 91.95 18.1917L90.1917 16.8167ZM88.5417 15.3917C88.575 15.65 88.5833 15.825 88.5833 16C88.5833 16.175 88.5667 16.3584 88.5417 16.6084L88.425 17.55L89.1667 18.1334L90.0667 18.8334L89.4833 19.8417L88.425 19.4167L87.5583 19.0667L86.8083 19.6334C86.45 19.9 86.1083 20.1 85.7667 20.2417L84.8833 20.6L84.75 21.5417L84.5833 22.6667H83.4167L83.2583 21.5417L83.125 20.6L82.2417 20.2417C81.8833 20.0917 81.55 19.9 81.2167 19.65L80.4583 19.0667L79.575 19.425L78.5167 19.85L77.9333 18.8417L78.8333 18.1417L79.575 17.5584L79.4583 16.6167C79.4333 16.3584 79.4167 16.1667 79.4167 16C79.4167 15.8334 79.4333 15.6417 79.4583 15.3917L79.575 14.45L78.8333 13.8667L77.9333 13.1667L78.5167 12.1584L79.575 12.5834L80.4417 12.9334L81.1917 12.3667C81.55 12.1 81.8917 11.9 82.2333 11.7584L83.1167 11.4L83.25 10.4584L83.4167 9.33335H84.575L84.7333 10.4584L84.8667 11.4L85.75 11.7584C86.1083 11.9084 86.4417 12.1 86.775 12.35L87.5333 12.9334L88.4167 12.575L89.475 12.15L90.0583 13.1584L89.1667 13.8667L88.425 14.45L88.5417 15.3917ZM84 12.6667C82.1583 12.6667 80.6667 14.1584 80.6667 16C80.6667 17.8417 82.1583 19.3334 84 19.3334C85.8417 19.3334 87.3333 17.8417 87.3333 16C87.3333 14.1584 85.8417 12.6667 84 12.6667ZM84 17.6667C83.0833 17.6667 82.3333 16.9167 82.3333 16C82.3333 15.0834 83.0833 14.3334 84 14.3334C84.9167 14.3334 85.6667 15.0834 85.6667 16C85.6667 16.9167 84.9167 17.6667 84 17.6667Z"/>
</mask>
<path d="M90.1917 16.8167C90.225 16.55 90.25 16.2834 90.25 16C90.25 15.7167 90.225 15.45 90.1917 15.1834L91.95 13.8084C92.1083 13.6834 92.15 13.4584 92.05 13.275L90.3833 10.3917C90.3083 10.2584 90.1667 10.1834 90.0167 10.1834C89.9667 10.1834 89.9167 10.1917 89.875 10.2084L87.8 11.0417C87.3667 10.7084 86.9 10.4334 86.3917 10.225L86.075 8.01669C86.05 7.81669 85.875 7.66669 85.6667 7.66669H82.3333C82.125 7.66669 81.95 7.81669 81.925 8.01669L81.6083 10.225C81.1 10.4334 80.6333 10.7167 80.2 11.0417L78.125 10.2084C78.075 10.1917 78.025 10.1834 77.975 10.1834C77.8333 10.1834 77.6917 10.2584 77.6167 10.3917L75.95 13.275C75.8417 13.4584 75.8917 13.6834 76.05 13.8084L77.8083 15.1834C77.775 15.45 77.75 15.725 77.75 16C77.75 16.275 77.775 16.55 77.8083 16.8167L76.05 18.1917C75.8917 18.3167 75.85 18.5417 75.95 18.725L77.6167 21.6084C77.6917 21.7417 77.8333 21.8167 77.9833 21.8167C78.0333 21.8167 78.0833 21.8084 78.125 21.7917L80.2 20.9584C80.6333 21.2917 81.1 21.5667 81.6083 21.775L81.925 23.9834C81.95 24.1834 82.125 24.3334 82.3333 24.3334H85.6667C85.875 24.3334 86.05 24.1834 86.075 23.9834L86.3917 21.775C86.9 21.5667 87.3667 21.2834 87.8 20.9584L89.875 21.7917C89.925 21.8084 89.975 21.8167 90.025 21.8167C90.1667 21.8167 90.3083 21.7417 90.3833 21.6084L92.05 18.725C92.15 18.5417 92.1083 18.3167 91.95 18.1917L90.1917 16.8167ZM88.5417 15.3917C88.575 15.65 88.5833 15.825 88.5833 16C88.5833 16.175 88.5667 16.3584 88.5417 16.6084L88.425 17.55L89.1667 18.1334L90.0667 18.8334L89.4833 19.8417L88.425 19.4167L87.5583 19.0667L86.8083 19.6334C86.45 19.9 86.1083 20.1 85.7667 20.2417L84.8833 20.6L84.75 21.5417L84.5833 22.6667H83.4167L83.2583 21.5417L83.125 20.6L82.2417 20.2417C81.8833 20.0917 81.55 19.9 81.2167 19.65L80.4583 19.0667L79.575 19.425L78.5167 19.85L77.9333 18.8417L78.8333 18.1417L79.575 17.5584L79.4583 16.6167C79.4333 16.3584 79.4167 16.1667 79.4167 16C79.4167 15.8334 79.4333 15.6417 79.4583 15.3917L79.575 14.45L78.8333 13.8667L77.9333 13.1667L78.5167 12.1584L79.575 12.5834L80.4417 12.9334L81.1917 12.3667C81.55 12.1 81.8917 11.9 82.2333 11.7584L83.1167 11.4L83.25 10.4584L83.4167 9.33335H84.575L84.7333 10.4584L84.8667 11.4L85.75 11.7584C86.1083 11.9084 86.4417 12.1 86.775 12.35L87.5333 12.9334L88.4167 12.575L89.475 12.15L90.0583 13.1584L89.1667 13.8667L88.425 14.45L88.5417 15.3917ZM84 12.6667C82.1583 12.6667 80.6667 14.1584 80.6667 16C80.6667 17.8417 82.1583 19.3334 84 19.3334C85.8417 19.3334 87.3333 17.8417 87.3333 16C87.3333 14.1584 85.8417 12.6667 84 12.6667ZM84 17.6667C83.0833 17.6667 82.3333 16.9167 82.3333 16C82.3333 15.0834 83.0833 14.3334 84 14.3334C84.9167 14.3334 85.6667 15.0834 85.6667 16C85.6667 16.9167 84.9167 17.6667 84 17.6667Z" fill="#111111" stroke="#111111" stroke-width="2" mask="url(#path-3-inside-1_92_368)"/>
</g>
<defs>
<clipPath id="clip0_92_368">
<rect width="20" height="20" fill="white" transform="translate(40 6)"/>
</clipPath>
<clipPath id="clip1_92_368">
<rect width="20" height="20" fill="white" transform="translate(74 6)"/>
</clipPath>
</defs>
</svg>
