<svg width="80" height="14" viewBox="0 0 80 14" fill="none" xmlns="http://www.w3.org/2000/svg">
<path d="M10.7994 3.5C10.7994 2.94772 11.2471 2.5 11.7994 2.5H12.7994C13.3517 2.5 13.7994 2.94772 13.7994 3.5V11.5C13.7994 12.0523 13.3517 12.5 12.7994 12.5H11.7994C11.2471 12.5 10.7994 12.0523 10.7994 11.5V3.5Z" fill="black"/>
<path d="M15.7994 1.5C15.7994 0.947715 16.2471 0.5 16.7994 0.5H17.7994C18.3517 0.5 18.7994 0.947715 18.7994 1.5V11.5C18.7994 12.0523 18.3517 12.5 17.7994 12.5H16.7994C16.2471 12.5 15.7994 12.0523 15.7994 11.5V1.5Z" fill="black"/>
<path d="M5.79941 7C5.79941 6.44772 6.24712 6 6.79941 6H7.79941C8.35169 6 8.79941 6.44772 8.79941 7V11.5C8.79941 12.0523 8.35169 12.5 7.79941 12.5H6.79941C6.24712 12.5 5.79941 12.0523 5.79941 11.5V7Z" fill="black"/>
<path d="M0.799408 9.5C0.799408 8.94772 1.24712 8.5 1.79941 8.5H2.79941C3.35169 8.5 3.79941 8.94772 3.79941 9.5V11.5C3.79941 12.0523 3.35169 12.5 2.79941 12.5H1.79941C1.24712 12.5 0.799408 12.0523 0.799408 11.5V9.5Z" fill="black"/>
<path fill-rule="evenodd" clip-rule="evenodd" d="M35.2999 3.08753C37.7664 3.08764 40.1387 4.05505 41.9263 5.78982C42.0609 5.92375 42.2761 5.92206 42.4086 5.78603L43.6954 4.46045C43.7625 4.39146 43.8 4.298 43.7994 4.20076C43.7988 4.10353 43.7604 4.01052 43.6924 3.94234C39.0005 -0.647446 31.5985 -0.647446 26.9066 3.94234C26.8386 4.01047 26.8 4.10345 26.7994 4.20069C26.7988 4.29792 26.8362 4.39141 26.9032 4.46045L28.1904 5.78603C28.3229 5.92226 28.5382 5.92396 28.6727 5.78982C30.4606 4.05494 32.8331 3.08752 35.2999 3.08753ZM35.3353 7.08937C36.6905 7.08929 37.9974 7.60346 39.0019 8.53199C39.1378 8.66376 39.3518 8.66091 39.4843 8.52555L40.7696 7.19997C40.8373 7.13044 40.8748 7.03611 40.8738 6.9381C40.8729 6.84008 40.8334 6.74656 40.7644 6.67844C37.7053 3.77385 32.9679 3.77385 29.9089 6.67844C29.8398 6.74656 29.8003 6.84013 29.7994 6.93817C29.7985 7.03622 29.8362 7.13054 29.904 7.19997L31.1889 8.52555C31.3214 8.66091 31.5354 8.66376 31.6713 8.53199C32.6752 7.60408 33.981 7.08995 35.3353 7.08937ZM37.949 9.67672C37.9509 9.77501 37.9131 9.86977 37.8443 9.93863L35.6211 12.2289C35.5559 12.2962 35.467 12.334 35.3743 12.334C35.2816 12.334 35.1927 12.2962 35.1276 12.2289L32.9039 9.93863C32.8352 9.86972 32.7974 9.77492 32.7995 9.67663C32.8015 9.57834 32.8432 9.48527 32.9147 9.41938C34.3346 8.19354 36.4141 8.19354 37.8339 9.41938C37.9054 9.48532 37.947 9.57843 37.949 9.67672Z" fill="black"/>
<path opacity="0.35" d="M55.7994 1H72.7994C74.7324 1 76.2994 2.567 76.2994 4.5V9.5C76.2994 11.433 74.7324 13 72.7994 13H55.7994C53.8664 13 52.2994 11.433 52.2994 9.5V4.5C52.2994 2.567 53.8664 1 55.7994 1Z" stroke="black"/>
<path opacity="0.4" d="M77.7994 5.5V9.72034C78.6485 9.36291 79.2006 8.5314 79.2006 7.61017C79.2006 6.68894 78.6485 5.85744 77.7994 5.5" fill="black"/>
<path d="M53.7994 4.5C53.7994 3.39543 54.6948 2.5 55.7994 2.5H72.7994C73.904 2.5 74.7994 3.39543 74.7994 4.5V9.5C74.7994 10.6046 73.904 11.5 72.7994 11.5H55.7994C54.6948 11.5 53.7994 10.6046 53.7994 9.5V4.5Z" fill="black"/>
</svg>
