<svg width="32" height="32" viewBox="0 0 32 32" fill="none" xmlns="http://www.w3.org/2000/svg">
<path fill-rule="evenodd" clip-rule="evenodd" d="M7.25 16C7.25 15.5858 7.58579 15.25 8 15.25H24C24.4142 15.25 24.75 15.5858 24.75 16C24.75 16.4142 24.4142 16.75 24 16.75H8C7.58579 16.75 7.25 16.4142 7.25 16Z" fill="#111111"/>
<path fill-rule="evenodd" clip-rule="evenodd" d="M16 24.75C15.5858 24.75 15.25 24.4142 15.25 24L15.25 8C15.25 7.58579 15.5858 7.25 16 7.25C16.4142 7.25 16.75 7.58579 16.75 8L16.75 24C16.75 24.4142 16.4142 24.75 16 24.75Z" fill="#111111"/>
</svg>
