<svg width="20" height="19" viewBox="0 0 20 19" fill="none" xmlns="http://www.w3.org/2000/svg">
<path d="M8.9118 9.90241C3.71612 9.91654 1.77336 13.9994 1.2127 16.9111C1.10114 17.4905 1.56919 17.9986 2.15969 17.9969L15.1331 17.9613C15.6901 17.9598 16.1388 17.5033 16.0631 16.9511C15.6845 14.1912 13.9229 9.88879 8.9118 9.90241Z" stroke="#0E0D0D" stroke-width="1.3"/>
<path d="M12.6345 4.38614C12.6406 6.41597 10.8993 8.12581 8.6706 8.13311C6.44192 8.14042 4.69029 6.44203 4.68418 4.4122C4.67808 2.38237 6.41945 0.672537 8.64813 0.665231C10.8768 0.657925 12.6284 2.35631 12.6345 4.38614Z" stroke="#0E0D0D" stroke-width="1.3"/>
<circle cx="16.0001" cy="14" r="3" fill="white"/>
<path d="M13.5001 14.5H18.5001" stroke="#0E0D0D" stroke-width="1.3" stroke-linecap="round"/>
<path d="M16.0787 16.9985L16.0913 11.9986" stroke="#0E0D0D" stroke-width="1.3" stroke-linecap="round"/>
</svg>
