<svg width="56" height="55" viewBox="0 0 56 55" fill="none" xmlns="http://www.w3.org/2000/svg">
<ellipse cx="28" cy="27.5" rx="28" ry="27.5" fill="#D5E3FD"/>
<path d="M27.9117 28.0168C22.708 28.0311 20.7673 32.1737 20.21 35.1199C20.1004 35.6992 20.5683 36.2064 21.1584 36.2047L34.1331 36.1687C34.69 36.1671 35.1388 35.7109 35.0646 35.1586C34.6894 32.3673 32.9298 28.003 27.9117 28.0168Z" fill="white" stroke="#F7F9FC" stroke-width="1.3"/>
<path d="M31.6344 22.4367C31.6406 24.5013 29.892 26.2271 27.6705 26.2344C25.449 26.2418 23.6902 24.5277 23.6841 22.4631C23.6779 20.3984 25.4265 18.6727 27.648 18.6653C29.8695 18.658 31.6283 20.3721 31.6344 22.4367Z" fill="white" stroke="#F7F9FC" stroke-width="1.3"/>
</svg>
