<svg width="56" height="55" viewBox="0 0 56 55" fill="none" xmlns="http://www.w3.org/2000/svg">
<ellipse cx="28.0001" cy="27.5" rx="28" ry="27.5" fill="#D5E3FD"/>
<path d="M27.9118 28.0168C22.7082 28.0311 20.7674 32.1737 20.2101 35.1199C20.1006 35.6992 20.5684 36.2064 21.1585 36.2047L34.1332 36.1687C34.6902 36.1671 35.1389 35.7109 35.0647 35.1586C34.6895 32.3673 32.9299 28.003 27.9118 28.0168Z" fill="white" stroke="#F7F9FC" stroke-width="1.3"/>
<path d="M31.6137 22.4367C31.6198 24.5013 29.8712 26.2271 27.6497 26.2344C25.4283 26.2418 23.6695 24.5277 23.6633 22.4631C23.6572 20.3984 25.4057 18.6727 27.6272 18.6653C29.8487 18.658 31.6075 20.3721 31.6137 22.4367Z" fill="white" stroke="#F7F9FC" stroke-width="1.3"/>
</svg>
