<svg width="12" height="11" viewBox="0 0 12 11" fill="none" xmlns="http://www.w3.org/2000/svg">
<path d="M11.8579 10.8698C11.9489 10.7861 12 10.6727 12 10.5545C12 10.4363 11.9489 10.3229 11.8579 10.2392L8.35324 7.02778C9.03527 6.26045 9.40693 5.30056 9.40522 4.31078C9.40381 3.16789 8.90791 2.07217 8.0263 1.26403C7.1447 0.455879 5.94939 0.00129396 4.70261 0C3.45583 0.00129396 2.26053 0.455879 1.37892 1.26403C0.497317 2.07217 0.00141158 3.16789 0 4.31078C0.00141158 5.45367 0.497317 6.54938 1.37892 7.35753C2.26053 8.16568 3.45583 8.62026 4.70261 8.62156C5.78236 8.62312 6.8295 8.28243 7.66658 7.65722L11.1712 10.8698C11.2622 10.953 11.3854 10.9998 11.5139 11C11.5777 11.0001 11.641 10.9886 11.7 10.9663C11.759 10.944 11.8127 10.9112 11.8579 10.8698ZM8.43257 4.31078C8.43151 5.21714 8.03826 6.0861 7.33911 6.72699C6.63997 7.36788 5.69202 7.72836 4.70328 7.72933C3.71442 7.72852 2.7663 7.36812 2.06701 6.72721C1.36772 6.08629 0.97438 5.21724 0.973321 4.31078C0.97438 3.40442 1.36763 2.53546 2.06677 1.89457C2.76592 1.25367 3.71387 0.893193 4.70261 0.892222C5.69147 0.893031 6.63959 1.25344 7.33888 1.89435C8.03817 2.53526 8.43151 3.40431 8.43257 4.31078Z" fill="#B7B7B7"/>
</svg>
