<svg width="18" height="18" viewBox="0 0 18 18" fill="none" xmlns="http://www.w3.org/2000/svg">
<path d="M17.7871 17.787C17.9237 17.65 18.0003 17.4644 18.0003 17.271C18.0003 17.0776 17.9237 16.892 17.7871 16.755L12.5301 11.5C13.5532 10.2444 14.1107 8.67365 14.1081 7.054C14.106 5.18381 13.3621 3.39083 12.0397 2.06841C10.7173 0.745984 8.92431 0.00211739 7.05412 0C5.18393 0.00211739 3.39095 0.745984 2.06853 2.06841C0.746106 3.39083 0.00223947 5.18381 0.00012207 7.054C0.00223947 8.92419 0.746106 10.7172 2.06853 12.0396C3.39095 13.362 5.18393 14.1059 7.05412 14.108C8.67377 14.1106 10.2445 13.5531 11.5001 12.53L16.7571 17.787C16.8936 17.9232 17.0784 17.9997 17.2711 18C17.3669 18.0001 17.4618 17.9814 17.5503 17.9448C17.6389 17.9083 17.7193 17.8547 17.7871 17.787ZM12.6491 7.054C12.6475 8.53713 12.0577 9.95907 11.0089 11.0078C9.96019 12.0565 8.53826 12.6464 7.05512 12.648C5.57182 12.6467 4.14963 12.0569 3.10067 11.0082C2.05172 9.95939 1.46171 8.53731 1.46012 7.054C1.46171 5.57087 2.05159 4.14893 3.10032 3.1002C4.14906 2.05146 5.57099 1.46159 7.05412 1.46C8.53743 1.46132 9.95962 2.05108 11.0086 3.09985C12.0575 4.14861 12.6475 5.57069 12.6491 7.054Z" fill="#0E0D0D"/>
</svg>
