<svg width="35" height="17" viewBox="0 0 35 17" fill="none" xmlns="http://www.w3.org/2000/svg">
<path d="M5.5166 2.72314C6.15853 2.72314 6.76725 2.84212 7.34277 3.08008C7.91829 3.3125 8.42741 3.67773 8.87012 4.17578C9.31836 4.66829 9.66976 5.30192 9.92432 6.07666C10.1789 6.84587 10.3062 7.77279 10.3062 8.85742V8.87402C10.3062 10.2188 10.1125 11.3698 9.7251 12.3271C9.33773 13.2845 8.78158 14.0205 8.05664 14.5352C7.33724 15.0443 6.47673 15.2988 5.4751 15.2988C4.7391 15.2988 4.07503 15.166 3.48291 14.9004C2.89632 14.6292 2.40934 14.2585 2.02197 13.7881C1.64014 13.3122 1.38281 12.7699 1.25 12.1611L1.2334 12.0698H3.3335L3.3667 12.1528C3.47184 12.4295 3.62126 12.673 3.81494 12.8833C4.01416 13.0936 4.25212 13.2568 4.52881 13.373C4.81104 13.4837 5.12646 13.5391 5.4751 13.5391C6.10596 13.5391 6.62061 13.3537 7.01904 12.9829C7.42301 12.6066 7.72461 12.1058 7.92383 11.4805C8.12858 10.8496 8.24479 10.1523 8.27246 9.38867C8.27799 9.30566 8.28076 9.22542 8.28076 9.14795C8.28076 9.06494 8.28076 8.9847 8.28076 8.90723L7.90723 6.90674C7.90723 6.45296 7.80208 6.04069 7.5918 5.66992C7.38151 5.29915 7.09652 5.00586 6.73682 4.79004C6.38265 4.57422 5.98145 4.46631 5.5332 4.46631C5.10156 4.46631 4.70589 4.57145 4.34619 4.78174C3.98649 4.99202 3.69873 5.27979 3.48291 5.64502C3.26709 6.00472 3.15918 6.40869 3.15918 6.85693V6.87354C3.15918 7.33838 3.26156 7.75065 3.46631 8.11035C3.67106 8.46452 3.95052 8.74398 4.30469 8.94873C4.65885 9.15348 5.06283 9.25586 5.5166 9.25586C5.97038 9.25586 6.37712 9.15625 6.73682 8.95703C7.09652 8.75781 7.38151 8.48112 7.5918 8.12695C7.80208 7.77279 7.90723 7.37158 7.90723 6.92334V6.90674H8.40527V9.11475H8.11475C7.97087 9.43018 7.75781 9.72347 7.47559 9.99463C7.19336 10.2658 6.84473 10.4844 6.42969 10.6504C6.02018 10.8164 5.53874 10.8994 4.98535 10.8994C4.22168 10.8994 3.54655 10.7279 2.95996 10.3848C2.37337 10.0417 1.9113 9.57129 1.57373 8.97363C1.2417 8.37598 1.07568 7.70085 1.07568 6.94824V6.93164C1.07568 6.11816 1.26383 5.396 1.64014 4.76514C2.02197 4.12874 2.54769 3.6307 3.21729 3.271C3.89242 2.90576 4.65885 2.72314 5.5166 2.72314ZM13.5747 13.3896C13.1984 13.3896 12.883 13.2651 12.6284 13.0161C12.3794 12.7616 12.2549 12.4517 12.2549 12.0864C12.2549 11.7157 12.3794 11.4058 12.6284 11.1567C12.883 10.9022 13.1984 10.7749 13.5747 10.7749C13.9565 10.7749 14.272 10.9022 14.521 11.1567C14.77 11.4058 14.8945 11.7157 14.8945 12.0864C14.8945 12.4517 14.77 12.7616 14.521 13.0161C14.272 13.2651 13.9565 13.3896 13.5747 13.3896ZM13.5747 7.23047C13.1984 7.23047 12.883 7.10596 12.6284 6.85693C12.3794 6.60238 12.2549 6.29248 12.2549 5.92725C12.2549 5.55648 12.3794 5.24658 12.6284 4.99756C12.883 4.743 13.1984 4.61572 13.5747 4.61572C13.9565 4.61572 14.272 4.743 14.521 4.99756C14.77 5.24658 14.8945 5.55648 14.8945 5.92725C14.8945 6.29248 14.77 6.60238 14.521 6.85693C14.272 7.10596 13.9565 7.23047 13.5747 7.23047ZM22.6538 15V12.7007H16.7935V10.9492C17.1089 10.4124 17.4243 9.87288 17.7397 9.33057C18.0607 8.78825 18.3844 8.2487 18.7109 7.71191C19.043 7.1696 19.3722 6.63558 19.6987 6.10986C20.0308 5.57861 20.36 5.05566 20.6865 4.54102C21.0186 4.02083 21.3506 3.51449 21.6826 3.02197H24.6958V10.9326H26.3145V12.7007H24.6958V15H22.6538ZM18.7856 10.9824H22.687V4.73193H22.5625C22.319 5.10824 22.0672 5.49561 21.8071 5.89404C21.5526 6.29248 21.2952 6.69922 21.0352 7.11426C20.7751 7.5293 20.5177 7.9471 20.2632 8.36768C20.0086 8.78271 19.7568 9.20052 19.5078 9.62109C19.2588 10.0361 19.0181 10.4484 18.7856 10.8579V10.9824ZM30.77 15V5.13037H30.6206L27.6406 7.23047V5.22168L30.77 3.02197H32.9033V15H30.77Z" fill="#121212"/>
</svg>
