<svg width="18" height="18" viewBox="0 0 18 18" fill="none" xmlns="http://www.w3.org/2000/svg">
<g filter="url(#filter0_d_123_2041)">
<circle cx="9" cy="9" r="7" fill="#FF2073"/>
<path d="M12.0416 6.37921C11.8504 6.18588 11.6226 6.03253 11.3715 5.92809C11.1204 5.82365 10.8511 5.77021 10.5791 5.77088C10.3072 5.77021 10.0378 5.82365 9.78675 5.92809C9.53567 6.03253 9.30787 6.18588 9.11663 6.37921L8.99996 6.50005L8.8833 6.38338C8.49651 5.99663 7.97194 5.77936 7.42496 5.77936C6.87799 5.77936 6.35342 5.99663 5.96663 6.38338C5.58491 6.77282 5.37109 7.2964 5.37109 7.84171C5.37109 8.38703 5.58491 8.91061 5.96663 9.30005L8.78746 12.1292C8.84606 12.1877 8.92548 12.2206 9.0083 12.2206C9.09111 12.2206 9.17054 12.1877 9.22913 12.1292L12.05 9.30005C12.4318 8.90933 12.6449 8.38425 12.6434 7.83793C12.6418 7.2916 12.4257 6.76774 12.0416 6.37921Z" fill="white"/>
</g>
<defs>
<filter id="filter0_d_123_2041" x="0" y="0" width="18" height="18" filterUnits="userSpaceOnUse" color-interpolation-filters="sRGB">
<feFlood flood-opacity="0" result="BackgroundImageFix"/>
<feColorMatrix in="SourceAlpha" type="matrix" values="0 0 0 0 0 0 0 0 0 0 0 0 0 0 0 0 0 0 127 0" result="hardAlpha"/>
<feOffset/>
<feGaussianBlur stdDeviation="1"/>
<feComposite in2="hardAlpha" operator="out"/>
<feColorMatrix type="matrix" values="0 0 0 0 0 0 0 0 0 0 0 0 0 0 0 0 0 0 0.25 0"/>
<feBlend mode="normal" in2="BackgroundImageFix" result="effect1_dropShadow_123_2041"/>
<feBlend mode="normal" in="SourceGraphic" in2="effect1_dropShadow_123_2041" result="shape"/>
</filter>
</defs>
</svg>
