<svg width="78" height="13" viewBox="0 0 78 13" fill="none" xmlns="http://www.w3.org/2000/svg">
<path fill-rule="evenodd" clip-rule="evenodd" d="M18.8039 0.499878H17.6373C16.9929 0.499878 16.4706 1.00356 16.4706 1.62488V11.3749C16.4706 11.9962 16.9929 12.4999 17.6373 12.4999H18.8039C19.4482 12.4999 19.9706 11.9962 19.9706 11.3749V1.62488C19.9706 1.00356 19.4482 0.499878 18.8039 0.499878ZM12.1471 3.12501H13.3137C13.9581 3.12501 14.4804 3.62869 14.4804 4.25001V11.375C14.4804 11.9963 13.9581 12.5 13.3137 12.5H12.1471C11.5027 12.5 10.9804 11.9963 10.9804 11.375V4.25001C10.9804 3.62869 11.5027 3.12501 12.1471 3.12501ZM7.82353 5.7498H6.65686C6.01253 5.7498 5.4902 6.25348 5.4902 6.8748V11.3748C5.4902 11.9961 6.01253 12.4998 6.65686 12.4998H7.82353C8.46786 12.4998 8.9902 11.9961 8.9902 11.3748V6.8748C8.9902 6.25348 8.46786 5.7498 7.82353 5.7498ZM2.33333 7.99976H1.16667C0.522334 7.99976 0 8.50344 0 9.12476V11.3748C0 11.9961 0.522334 12.4998 1.16667 12.4998H2.33333C2.97767 12.4998 3.5 11.9961 3.5 11.3748V9.12476C3.5 8.50344 2.97767 7.99976 2.33333 7.99976Z" fill="#121212"/>
<path fill-rule="evenodd" clip-rule="evenodd" d="M34.9712 2.84599C37.4377 2.8461 39.81 3.81668 41.5976 5.55712C41.7322 5.69149 41.9474 5.68979 42.0799 5.55332L43.3667 4.2234C43.4338 4.15418 43.4713 4.06042 43.4707 3.96287C43.4701 3.86531 43.4316 3.77201 43.3637 3.7036C38.6718 -0.901199 31.2698 -0.901199 26.5779 3.7036C26.5099 3.77196 26.4713 3.86523 26.4707 3.96279C26.4701 4.06034 26.5074 4.15413 26.5745 4.2234L27.8617 5.55332C27.9942 5.69 28.2095 5.6917 28.344 5.55712C30.1319 3.81656 32.5044 2.84598 34.9712 2.84599ZM34.9712 7.17266C36.3264 7.17257 37.6332 7.68843 38.6378 8.61999C38.7736 8.7522 38.9877 8.74933 39.1201 8.61353L40.4054 7.28361C40.4731 7.21386 40.5107 7.11922 40.5097 7.02089C40.5087 6.92255 40.4693 6.82872 40.4002 6.76039C37.3411 3.84629 32.6038 3.84629 29.5447 6.76039C29.4756 6.82872 29.4362 6.9226 29.4353 7.02097C29.4344 7.11933 29.472 7.21396 29.5399 7.28361L30.8248 8.61353C30.9572 8.74933 31.1713 8.7522 31.3071 8.61999C32.311 7.68905 33.6168 7.17323 34.9712 7.17266ZM37.5458 10.084C37.5478 10.1826 37.5099 10.2777 37.4412 10.3468L35.2179 12.6445C35.1527 12.712 35.0639 12.75 34.9711 12.75C34.8784 12.75 34.7896 12.712 34.7244 12.6445L32.5008 10.3468C32.4321 10.2776 32.3943 10.1825 32.3963 10.0839C32.3984 9.98529 32.44 9.89191 32.5115 9.82581C33.9314 8.59595 36.0109 8.59595 37.4308 9.82581C37.5022 9.89196 37.5438 9.98537 37.5458 10.084Z" fill="#121212"/>
<rect opacity="0.4" x="50.4707" y="0.5" width="24" height="12" rx="3.5" stroke="#121212"/>
<path opacity="0.5" d="M75.9707 4.5V8.5C76.7766 8.16122 77.3007 7.37313 77.3007 6.5C77.3007 5.62687 76.7766 4.83878 75.9707 4.5Z" fill="#121212"/>
<rect x="51.9707" y="2" width="17" height="9" rx="2" fill="#121212"/>
</svg>
