<svg width="375" height="47" viewBox="0 0 375 47" fill="none" xmlns="http://www.w3.org/2000/svg">
<path d="M53.5166 23.7231C54.1585 23.7231 54.7673 23.8421 55.3428 24.0801C55.9183 24.3125 56.4274 24.6777 56.8701 25.1758C57.3184 25.6683 57.6698 26.3019 57.9243 27.0767C58.1789 27.8459 58.3062 28.7728 58.3062 29.8574V29.874C58.3062 31.2188 58.1125 32.3698 57.7251 33.3271C57.3377 34.2845 56.7816 35.0205 56.0566 35.5352C55.3372 36.0443 54.4767 36.2988 53.4751 36.2988C52.7391 36.2988 52.075 36.166 51.4829 35.9004C50.8963 35.6292 50.4093 35.2585 50.022 34.7881C49.6401 34.3122 49.3828 33.7699 49.25 33.1611L49.2334 33.0698H51.3335L51.3667 33.1528C51.4718 33.4295 51.6213 33.673 51.8149 33.8833C52.0142 34.0936 52.2521 34.2568 52.5288 34.373C52.811 34.4837 53.1265 34.5391 53.4751 34.5391C54.106 34.5391 54.6206 34.3537 55.019 33.9829C55.423 33.6066 55.7246 33.1058 55.9238 32.4805C56.1286 31.8496 56.2448 31.1523 56.2725 30.3887C56.278 30.3057 56.2808 30.2254 56.2808 30.1479C56.2808 30.0649 56.2808 29.9847 56.2808 29.9072L55.9072 27.9067C55.9072 27.453 55.8021 27.0407 55.5918 26.6699C55.3815 26.2992 55.0965 26.0059 54.7368 25.79C54.3826 25.5742 53.9814 25.4663 53.5332 25.4663C53.1016 25.4663 52.7059 25.5715 52.3462 25.7817C51.9865 25.992 51.6987 26.2798 51.4829 26.645C51.2671 27.0047 51.1592 27.4087 51.1592 27.8569V27.8735C51.1592 28.3384 51.2616 28.7507 51.4663 29.1104C51.6711 29.4645 51.9505 29.744 52.3047 29.9487C52.6589 30.1535 53.0628 30.2559 53.5166 30.2559C53.9704 30.2559 54.3771 30.1562 54.7368 29.957C55.0965 29.7578 55.3815 29.4811 55.5918 29.127C55.8021 28.7728 55.9072 28.3716 55.9072 27.9233V27.9067H56.4053V30.1147H56.1147C55.9709 30.4302 55.7578 30.7235 55.4756 30.9946C55.1934 31.2658 54.8447 31.4844 54.4297 31.6504C54.0202 31.8164 53.5387 31.8994 52.9854 31.8994C52.2217 31.8994 51.5465 31.7279 50.96 31.3848C50.3734 31.0417 49.9113 30.5713 49.5737 29.9736C49.2417 29.376 49.0757 28.7008 49.0757 27.9482V27.9316C49.0757 27.1182 49.2638 26.396 49.6401 25.7651C50.022 25.1287 50.5477 24.6307 51.2173 24.271C51.8924 23.9058 52.6589 23.7231 53.5166 23.7231ZM61.5747 34.3896C61.1984 34.3896 60.883 34.2651 60.6284 34.0161C60.3794 33.7616 60.2549 33.4517 60.2549 33.0864C60.2549 32.7157 60.3794 32.4058 60.6284 32.1567C60.883 31.9022 61.1984 31.7749 61.5747 31.7749C61.9565 31.7749 62.272 31.9022 62.521 32.1567C62.77 32.4058 62.8945 32.7157 62.8945 33.0864C62.8945 33.4517 62.77 33.7616 62.521 34.0161C62.272 34.2651 61.9565 34.3896 61.5747 34.3896ZM61.5747 28.2305C61.1984 28.2305 60.883 28.106 60.6284 27.8569C60.3794 27.6024 60.2549 27.2925 60.2549 26.9272C60.2549 26.5565 60.3794 26.2466 60.6284 25.9976C60.883 25.743 61.1984 25.6157 61.5747 25.6157C61.9565 25.6157 62.272 25.743 62.521 25.9976C62.77 26.2466 62.8945 26.5565 62.8945 26.9272C62.8945 27.2925 62.77 27.6024 62.521 27.8569C62.272 28.106 61.9565 28.2305 61.5747 28.2305ZM70.6538 36V33.7007H64.7935V31.9492C65.1089 31.4124 65.4243 30.8729 65.7397 30.3306C66.0607 29.7882 66.3844 29.2487 66.7109 28.7119C67.043 28.1696 67.3722 27.6356 67.6987 27.1099C68.0308 26.5786 68.36 26.0557 68.6865 25.541C69.0186 25.0208 69.3506 24.5145 69.6826 24.022H72.6958V31.9326H74.3145V33.7007H72.6958V36H70.6538ZM66.7856 31.9824H70.687V25.7319H70.5625C70.319 26.1082 70.0672 26.4956 69.8071 26.894C69.5526 27.2925 69.2952 27.6992 69.0352 28.1143C68.7751 28.5293 68.5177 28.9471 68.2632 29.3677C68.0086 29.7827 67.7568 30.2005 67.5078 30.6211C67.2588 31.0361 67.0181 31.4484 66.7856 31.8579V31.9824ZM78.77 36V26.1304H78.6206L75.6406 28.2305V26.2217L78.77 24.022H80.9033V36H78.77Z" fill="#121212"/>
<path fill-rule="evenodd" clip-rule="evenodd" d="M297.804 23.4999H296.637C295.993 23.4999 295.471 24.0036 295.471 24.6249V34.3749C295.471 34.9962 295.993 35.4999 296.637 35.4999H297.804C298.448 35.4999 298.971 34.9962 298.971 34.3749V24.6249C298.971 24.0036 298.448 23.4999 297.804 23.4999ZM291.147 26.125H292.314C292.958 26.125 293.48 26.6287 293.48 27.25V34.375C293.48 34.9963 292.958 35.5 292.314 35.5H291.147C290.503 35.5 289.98 34.9963 289.98 34.375V27.25C289.98 26.6287 290.503 26.125 291.147 26.125ZM286.824 28.7498H285.657C285.013 28.7498 284.49 29.2535 284.49 29.8748V34.3748C284.49 34.9961 285.013 35.4998 285.657 35.4998H286.824C287.468 35.4998 287.99 34.9961 287.99 34.3748V29.8748C287.99 29.2535 287.468 28.7498 286.824 28.7498ZM281.333 30.9998H280.167C279.522 30.9998 279 31.5034 279 32.1248V34.3748C279 34.9961 279.522 35.4998 280.167 35.4998H281.333C281.978 35.4998 282.5 34.9961 282.5 34.3748V32.1248C282.5 31.5034 281.978 30.9998 281.333 30.9998Z" fill="#121212"/>
<path fill-rule="evenodd" clip-rule="evenodd" d="M313.971 25.846C316.438 25.8461 318.81 26.8167 320.598 28.5571C320.732 28.6915 320.947 28.6898 321.08 28.5533L322.367 27.2234C322.434 27.1542 322.471 27.0604 322.471 26.9629C322.47 26.8653 322.432 26.772 322.364 26.7036C317.672 22.0988 310.27 22.0988 305.578 26.7036C305.51 26.772 305.471 26.8652 305.471 26.9628C305.47 27.0603 305.507 27.1541 305.575 27.2234L306.862 28.5533C306.994 28.69 307.209 28.6917 307.344 28.5571C309.132 26.8166 311.504 25.846 313.971 25.846ZM313.971 30.1727C315.326 30.1726 316.633 30.6884 317.638 31.62C317.774 31.7522 317.988 31.7493 318.12 31.6135L319.405 30.2836C319.473 30.2139 319.511 30.1192 319.51 30.0209C319.509 29.9226 319.469 29.8287 319.4 29.7604C316.341 26.8463 311.604 26.8463 308.545 29.7604C308.476 29.8287 308.436 29.9226 308.435 30.021C308.434 30.1193 308.472 30.214 308.54 30.2836L309.825 31.6135C309.957 31.7493 310.171 31.7522 310.307 31.62C311.311 30.689 312.617 30.1732 313.971 30.1727ZM316.546 33.084C316.548 33.1826 316.51 33.2777 316.441 33.3468L314.218 35.6445C314.153 35.712 314.064 35.75 313.971 35.75C313.878 35.75 313.79 35.712 313.724 35.6445L311.501 33.3468C311.432 33.2776 311.394 33.1825 311.396 33.0839C311.398 32.9853 311.44 32.8919 311.512 32.8258C312.931 31.596 315.011 31.596 316.431 32.8258C316.502 32.892 316.544 32.9854 316.546 33.084Z" fill="#121212"/>
<rect opacity="0.4" x="329.471" y="23.5" width="24" height="12" rx="3.5" stroke="#121212"/>
<path opacity="0.5" d="M354.971 27.5V31.5C355.777 31.1612 356.301 30.3731 356.301 29.5C356.301 28.6269 355.777 27.8388 354.971 27.5Z" fill="#121212"/>
<rect x="330.971" y="25" width="17" height="9" rx="2" fill="#121212"/>
</svg>
