<svg width="24" height="24" viewBox="0 0 24 24" fill="none" xmlns="http://www.w3.org/2000/svg">
<path d="M13.2878 12.0119L18.7073 6.59238C18.7977 6.5082 18.8701 6.40667 18.9204 6.29387C18.9707 6.18107 18.9977 6.05929 18.9999 5.93582C19.002 5.81235 18.9793 5.6897 18.9331 5.57519C18.8868 5.46068 18.818 5.35667 18.7307 5.26934C18.6433 5.18202 18.5393 5.11318 18.4248 5.06693C18.3103 5.02068 18.1877 4.99796 18.0642 5.00014C17.9407 5.00232 17.8189 5.02935 17.7061 5.07961C17.5933 5.12987 17.4918 5.20234 17.4076 5.29269L11.9881 10.7122L6.56864 5.29269C6.39431 5.13025 6.16374 5.04182 5.9255 5.04602C5.68727 5.05022 5.45996 5.14674 5.29147 5.31522C5.12299 5.48371 5.02648 5.71101 5.02227 5.94925C5.01807 6.18749 5.1065 6.41806 5.26894 6.59238L10.6884 12.0119L5.26894 17.4314C5.09673 17.6038 5 17.8375 5 18.0812C5 18.3249 5.09673 18.5586 5.26894 18.7311C5.44136 18.9033 5.67509 19 5.91879 19C6.16248 19 6.39621 18.9033 6.56864 18.7311L11.9881 13.3116L17.4076 18.7311C17.58 18.9033 17.8138 19 18.0575 19C18.3012 19 18.5349 18.9033 18.7073 18.7311C18.8795 18.5586 18.9763 18.3249 18.9763 18.0812C18.9763 17.8375 18.8795 17.6038 18.7073 17.4314L13.2878 12.0119Z" fill="black"/>
</svg>
