<svg width="375" height="44" viewBox="0 0 375 44" fill="none" xmlns="http://www.w3.org/2000/svg">
<g clip-path="url(#clip0_2001_486)">
<rect opacity="0.35" x="335.5" y="17.8333" width="21" height="10.3333" rx="2.16667" stroke="black"/>
<path opacity="0.4" d="M358 21V25C358.805 24.6612 359.328 23.8731 359.328 23C359.328 22.1269 358.805 21.3388 358 21Z" fill="black"/>
<rect x="337" y="19" width="18" height="8" rx="1.33333" fill="black"/>
<path fill-rule="evenodd" clip-rule="evenodd" d="M324.33 19.6079C326.546 19.608 328.677 20.4594 330.283 21.9862C330.404 22.1041 330.598 22.1026 330.717 21.9829L331.873 20.8162C331.933 20.7555 331.967 20.6733 331.966 20.5877C331.966 20.5021 331.931 20.4202 331.87 20.3602C327.655 16.3207 321.005 16.3207 316.79 20.3602C316.729 20.4202 316.694 20.502 316.694 20.5876C316.693 20.6732 316.727 20.7555 316.787 20.8162L317.943 21.9829C318.062 22.1028 318.256 22.1043 318.377 21.9862C319.983 20.4593 322.114 19.6079 324.33 19.6079ZM324.33 23.4036C325.548 23.4035 326.722 23.856 327.624 24.6732C327.746 24.7892 327.939 24.7867 328.058 24.6676L329.212 23.5009C329.273 23.4397 329.307 23.3567 329.306 23.2704C329.305 23.1842 329.27 23.1018 329.208 23.0419C326.459 20.4855 322.204 20.4855 319.455 23.0419C319.393 23.1018 319.358 23.1842 319.357 23.2705C319.356 23.3568 319.39 23.4398 319.451 23.5009L320.605 24.6676C320.724 24.7867 320.917 24.7892 321.039 24.6732C321.941 23.8566 323.114 23.4041 324.33 23.4036ZM326.643 25.9574C326.645 26.0439 326.611 26.1273 326.549 26.1879L324.552 28.2036C324.493 28.2628 324.414 28.2961 324.33 28.2961C324.247 28.2961 324.167 28.2628 324.109 28.2036L322.111 26.1879C322.049 26.1272 322.015 26.0438 322.017 25.9573C322.019 25.8708 322.056 25.7889 322.121 25.7309C323.396 24.652 325.264 24.652 326.54 25.7309C326.604 25.7889 326.642 25.8709 326.643 25.9574Z" fill="black"/>
<path fill-rule="evenodd" clip-rule="evenodd" d="M311.667 17.6667H310.667C310.114 17.6667 309.667 18.1145 309.667 18.6667V27.3334C309.667 27.8857 310.114 28.3334 310.667 28.3334H311.667C312.219 28.3334 312.667 27.8857 312.667 27.3334V18.6667C312.667 18.1145 312.219 17.6667 311.667 17.6667ZM306 20.0001H307C307.552 20.0001 308 20.4478 308 21.0001V27.3334C308 27.8857 307.552 28.3334 307 28.3334H306C305.448 28.3334 305 27.8857 305 27.3334V21.0001C305 20.4478 305.448 20.0001 306 20.0001ZM302.333 22.3334H301.333C300.781 22.3334 300.333 22.7811 300.333 23.3334V27.3334C300.333 27.8857 300.781 28.3334 301.333 28.3334H302.333C302.886 28.3334 303.333 27.8857 303.333 27.3334V23.3334C303.333 22.7811 302.886 22.3334 302.333 22.3334ZM297.667 24.3334H296.667C296.114 24.3334 295.667 24.7811 295.667 25.3334V27.3334C295.667 27.8857 296.114 28.3334 296.667 28.3334H297.667C298.219 28.3334 298.667 27.8857 298.667 27.3334V25.3334C298.667 24.7811 298.219 24.3334 297.667 24.3334Z" fill="black"/>
<path d="M34.9337 17.8896C37.0391 17.8896 38.8712 19.3867 38.8712 22.9414V22.9551C38.8712 26.2773 37.3741 28.2461 34.8927 28.2461C33.0811 28.2461 31.7276 27.1729 31.4132 25.6621L31.3995 25.5869H33.1358L33.1563 25.6553C33.4161 26.3457 34.0245 26.7969 34.8927 26.7969C36.4581 26.7969 37.1212 25.2656 37.1964 23.3789C37.1964 23.3037 37.2032 23.2285 37.2032 23.1533H37.0665C36.7042 23.9326 35.8429 24.623 34.4893 24.623C32.5958 24.623 31.2696 23.2422 31.2696 21.3691V21.3555C31.2696 19.3525 32.794 17.8896 34.9337 17.8896ZM34.9268 23.2695C36.0411 23.2695 36.8956 22.4629 36.8956 21.3486V21.335C36.8956 20.207 36.0411 19.3252 34.9473 19.3252C33.8604 19.3252 32.9923 20.1934 32.9923 21.2939V21.3076C32.9923 22.4492 33.8057 23.2695 34.9268 23.2695ZM41.6947 21.6084C41.0726 21.6084 40.6078 21.1299 40.6078 20.5283C40.6078 19.9199 41.0726 19.4482 41.6947 19.4482C42.3236 19.4482 42.7816 19.9199 42.7816 20.5283C42.7816 21.1299 42.3236 21.6084 41.6947 21.6084ZM41.6947 26.6807C41.0726 26.6807 40.6078 26.209 40.6078 25.6006C40.6078 24.9922 41.0726 24.5205 41.6947 24.5205C42.3236 24.5205 42.7816 24.9922 42.7816 25.6006C42.7816 26.209 42.3236 26.6807 41.6947 26.6807ZM49.3034 28V26.1064H44.4772V24.6641C45.7555 22.4424 47.1569 20.1729 48.4967 18.1357H50.9918V24.6504H52.318V26.1064H50.9918V28H49.3034ZM46.1178 24.6914H49.3307V19.5439H49.2282C48.2164 21.0889 47.0748 22.9141 46.1178 24.5889V24.6914ZM56.1259 28V19.8721H56.0097L53.5556 21.6084V19.9473L56.1327 18.1357H57.8896V28H56.1259Z" fill="black"/>
</g>
<defs>
<clipPath id="clip0_2001_486">
<rect width="375" height="44" fill="white"/>
</clipPath>
</defs>
</svg>
