<svg width="75" height="12" viewBox="0 0 75 12" fill="none" xmlns="http://www.w3.org/2000/svg">
<path d="M2 7H1C0.447715 7 0 7.44772 0 8V10C0 10.5523 0.447715 11 1 11H2C2.55228 11 3 10.5523 3 10V8C3 7.44772 2.55228 7 2 7Z" fill="black"/>
<path d="M7 5H6C5.44772 5 5 5.44772 5 6V10C5 10.5523 5.44772 11 6 11H7C7.55228 11 8 10.5523 8 10V6C8 5.44772 7.55228 5 7 5Z" fill="black"/>
<path d="M12 3H11C10.4477 3 10 3.44772 10 4V10C10 10.5523 10.4477 11 11 11H12C12.5523 11 13 10.5523 13 10V4C13 3.44772 12.5523 3 12 3Z" fill="black"/>
<path d="M17 1H16C15.4477 1 15 1.44772 15 2V10C15 10.5523 15.4477 11 16 11H17C17.5523 11 18 10.5523 18 10V2C18 1.44772 17.5523 1 17 1Z" fill="black"/>
<g clip-path="url(#clip0_100_487)">
<path d="M34.4911 11.8093C34.5405 11.8127 34.59 11.8056 34.6364 11.7883C34.6827 11.7711 34.725 11.7443 34.7601 11.7095C34.8361 11.6405 36.529 9.93837 36.913 9.59937C36.9616 9.52538 36.9913 9.44046 36.9992 9.35229C36.9868 9.25503 36.939 9.16573 36.8651 9.10132C36.1772 8.58442 35.3401 8.30493 34.4796 8.30493C33.6192 8.30493 32.782 8.58442 32.0941 9.10132C32.0391 9.17464 32.0045 9.26124 31.994 9.35229C31.9876 9.39862 31.9936 9.44591 32.0111 9.48926C32.0287 9.53261 32.0573 9.57056 32.0941 9.59937C32.1851 9.69937 34.1781 11.6285 34.2731 11.7095C34.3681 11.7905 34.3701 11.8093 34.4911 11.8093Z" fill="black"/>
<path d="M29.4999 6.4873C29.5074 6.57575 29.5461 6.65867 29.6089 6.72131L30.764 8.02136C30.8251 8.0791 30.9059 8.11121 30.9899 8.11121C31.074 8.11121 31.1549 8.0791 31.216 8.02136C32.0867 7.13449 33.2732 6.62861 34.5159 6.61438C35.7569 6.63716 36.9404 7.14172 37.816 8.02136C37.8768 8.07766 37.9566 8.10889 38.0395 8.10889C38.1224 8.10889 38.2022 8.07766 38.263 8.02136L39.425 6.72131C39.4764 6.65373 39.506 6.57212 39.5099 6.4873C39.5148 6.44348 39.5098 6.39911 39.4951 6.35754C39.4803 6.31598 39.4564 6.2783 39.425 6.24731C38.7986 5.57304 38.04 5.03526 37.1964 4.66748C36.3527 4.2997 35.4423 4.10986 34.522 4.10986C33.6017 4.10986 32.6912 4.2997 31.8476 4.66748C31.004 5.03526 30.2453 5.57304 29.619 6.24731C29.537 6.36431 29.4999 6.3543 29.4999 6.4873Z" fill="black"/>
<path d="M26.597 3.39343C26.534 3.49343 26.4971 3.5174 26.4971 3.6394C26.5059 3.72814 26.5407 3.81225 26.597 3.88135C26.597 3.88135 27.564 4.92545 27.811 5.10645C27.8779 5.1577 27.9598 5.18542 28.0441 5.18542C28.1283 5.18542 28.2101 5.1577 28.277 5.10645C29.9523 3.49428 32.1869 2.59363 34.512 2.59363C36.837 2.59363 39.0718 3.49428 40.7471 5.10645C40.7471 5.10645 41.009 5.29645 41.197 5.10645C41.385 4.91645 42.397 3.88135 42.397 3.88135C42.4538 3.8125 42.4887 3.72826 42.4971 3.6394C42.5016 3.59336 42.4948 3.54689 42.4774 3.50403C42.46 3.46117 42.4324 3.42324 42.397 3.39343C40.2798 1.34002 37.4464 0.19165 34.4971 0.19165C31.5477 0.19165 28.7142 1.34002 26.597 3.39343Z" fill="black"/>
</g>
<g clip-path="url(#clip1_100_487)">
<path opacity="0.4" d="M53.864 0.5C53.2163 0.515995 52.6013 0.788118 52.1539 1.25673C51.7065 1.72535 51.4631 2.35223 51.477 3V9C51.4631 9.6476 51.7063 10.2743 52.1536 10.7429C52.6008 11.2115 53.2155 11.4837 53.863 11.5H69.136C69.7837 11.484 70.3987 11.2119 70.8461 10.7433C71.2936 10.2747 71.537 9.64777 71.523 9V3C71.537 2.35223 71.2936 1.72535 70.8461 1.25673C70.3987 0.788118 69.7837 0.515995 69.136 0.5H53.864ZM53.864 0H69.136C69.9135 0.0183534 70.6519 0.344655 71.189 0.907192C71.726 1.46973 72.0177 2.22248 72 3V9C72.0177 9.77752 71.726 10.5303 71.189 11.0928C70.6519 11.6553 69.9135 11.9816 69.136 12H53.864C53.0865 11.9816 52.3481 11.6553 51.8111 11.0928C51.274 10.5303 50.9823 9.77752 51 9V3C50.9823 2.22248 51.274 1.46973 51.8111 0.907192C52.3481 0.344655 53.0865 0.0183534 53.864 0V0Z" fill="black"/>
<rect x="53" y="2" width="17" height="8" rx="1" fill="black"/>
<path opacity="0.4" d="M73 4C73.5304 4 74.0391 4.21071 74.4142 4.58579C74.7893 4.96086 75 5.46957 75 6C75 6.53043 74.7893 7.03914 74.4142 7.41421C74.0391 7.78929 73.5304 8 73 8V4Z" fill="black"/>
</g>
<defs>
<clipPath id="clip0_100_487">
<rect width="16" height="11.619" fill="white" transform="translate(26.5 0.19043)"/>
</clipPath>
<clipPath id="clip1_100_487">
<rect width="24" height="12" fill="white" transform="translate(51)"/>
</clipPath>
</defs>
</svg>
