<svg width="8" height="14" viewBox="0 0 8 14" fill="none" xmlns="http://www.w3.org/2000/svg">
<path d="M8 6.99658C8 6.71603 7.89736 6.48337 7.67839 6.26441L2.40949 1.11183C2.23158 0.933919 2.01946 0.851807 1.76627 0.851807C1.25307 0.851807 0.835663 1.25553 0.835663 1.76873C0.835663 2.02191 0.945147 2.25457 1.1299 2.43932L5.81033 6.98974L1.1299 11.5538C0.945147 11.7386 0.835663 11.9644 0.835663 12.2244C0.835663 12.7376 1.25307 13.1482 1.76627 13.1482C2.01946 13.1482 2.23158 13.0592 2.40949 12.8813L7.67839 7.72875C7.9042 7.50978 8 7.27713 8 6.99658Z" fill="#B9B9B9"/>
</svg>
