<svg width="24" height="24" viewBox="0 0 24 24" fill="none" xmlns="http://www.w3.org/2000/svg">
<path d="M22.8173 2.87047L21.1554 1.19372L22.0409 0.31889C22.4412 -0.0699228 23.0356 -0.118524 23.4117 0.258138L23.6907 0.549747C24.1031 0.95071 24.1031 1.53393 23.6907 1.97134L22.8173 2.87047ZM8.22441 16.1265C7.99394 16.2237 7.75133 15.9443 7.84837 15.7377L8.94011 13.4535L20.2578 2.11715L21.9196 3.75745L10.5898 15.0938L8.22441 16.1265ZM3.80895 24C1.28582 24 0 22.7485 0 20.2334V6.23613C0 3.73315 1.28582 2.46951 3.80895 2.46951H16.8491L14.8961 4.42572H3.84534C2.6323 4.42572 1.95299 5.08184 1.95299 6.34548V20.1362C1.95299 21.3998 2.6323 22.0438 3.84534 22.0438H18.0258C18.8628 22.0438 19.5421 21.3998 19.5421 20.1362V9.20082L21.4951 7.24461V20.2334C21.4951 22.7364 20.2335 24 18.05 24H3.80895Z" fill="#5865F2"/>
</svg>
