<svg width="20" height="20" viewBox="0 0 20 20" fill="none" xmlns="http://www.w3.org/2000/svg">
<path d="M10 20C15.5228 20 20 15.5228 20 10C20 4.47715 15.5228 0 10 0C4.47715 0 0 4.47715 0 10C0 15.5228 4.47715 20 10 20Z" fill="#EBEBEB"/>
<path d="M6.62661 11.8267C8.45328 13.8534 11.5466 13.8534 13.3733 11.8267C13.6266 11.5334 14.1199 11.84 13.9599 12.1867C12.9866 14.56 9.73328 15.36 7.62661 14C6.91995 13.56 6.34661 12.9334 6.03995 12.1867C5.95995 12.0134 6.05328 11.8 6.22661 11.7334C6.37328 11.6667 6.53328 11.72 6.62661 11.8267Z" fill="#B9B9B9"/>
<path d="M12.6666 9.33329C13.403 9.33329 13.9999 8.73634 13.9999 7.99996C13.9999 7.26358 13.403 6.66663 12.6666 6.66663C11.9302 6.66663 11.3333 7.26358 11.3333 7.99996C11.3333 8.73634 11.9302 9.33329 12.6666 9.33329Z" fill="#B9B9B9"/>
<path d="M7.33333 9.33329C8.06971 9.33329 8.66667 8.73634 8.66667 7.99996C8.66667 7.26358 8.06971 6.66663 7.33333 6.66663C6.59695 6.66663 6 7.26358 6 7.99996C6 8.73634 6.59695 9.33329 7.33333 9.33329Z" fill="#B9B9B9"/>
</svg>
