<svg width="359" height="68" viewBox="0 0 359 68" fill="none" xmlns="http://www.w3.org/2000/svg">
<circle cx="24" cy="38" r="24" fill="#EBEBEB"/>
<path d="M14.9007 38.0368C14.9007 37.4963 15.3529 37.0441 15.8824 37.0441H23.0184V29.9191C23.0184 29.3897 23.4596 28.9375 24 28.9375C24.5404 28.9375 24.9926 29.3897 24.9926 29.9191V37.0441H32.1176C32.6471 37.0441 33.0993 37.4963 33.0993 38.0368C33.0993 38.5772 32.6471 39.0184 32.1176 39.0184H24.9926V46.1544C24.9926 46.6838 24.5404 47.136 24 47.136C23.4596 47.136 23.0184 46.6838 23.0184 46.1544V39.0184H15.8824C15.3529 39.0184 14.9007 38.5772 14.9007 38.0368Z" fill="#B9B9B9"/>
<g opacity="0.3">
<rect x="64" y="8" width="60" height="60" rx="10" fill="#5865F2"/>
<path d="M109.425 23.7637C106.642 22.4726 103.665 21.5342 100.554 21C100.172 21.6849 99.7253 22.6062 99.4175 23.339C96.1098 22.8459 92.8326 22.8459 89.5857 23.339C89.278 22.6062 88.8214 21.6849 88.4358 21C85.3209 21.5342 82.3413 22.476 79.5578 23.7705C73.9436 32.1815 72.4216 40.3836 73.1826 48.4692C76.9063 51.226 80.515 52.9007 84.0628 53.9966C84.9388 52.8014 85.72 51.5308 86.3931 50.1918C85.1112 49.7089 83.8835 49.113 82.7235 48.4212C83.0313 48.1952 83.3323 47.9589 83.6231 47.7158C90.6985 50.9966 98.3859 50.9966 105.377 47.7158C105.671 47.9589 105.972 48.1952 106.276 48.4212C105.113 49.1164 103.882 49.7123 102.6 50.1952C103.273 51.5308 104.051 52.8048 104.93 54C108.481 52.9041 112.094 51.2295 115.817 48.4692C116.71 39.0959 114.292 30.9692 109.425 23.7637ZM87.3569 43.4966C85.233 43.4966 83.4912 41.5308 83.4912 39.137C83.4912 36.7432 85.1958 34.774 87.3569 34.774C89.5181 34.774 91.2599 36.7397 91.2227 39.137C91.2261 41.5308 89.5181 43.4966 87.3569 43.4966ZM101.643 43.4966C99.5189 43.4966 97.7772 41.5308 97.7772 39.137C97.7772 36.7432 99.4817 34.774 101.643 34.774C103.804 34.774 105.546 36.7397 105.509 39.137C105.509 41.5308 103.804 43.4966 101.643 43.4966Z" fill="#808DFF"/>
</g>
<rect x="132" y="8" width="60" height="60" rx="10" fill="#EB459F"/>
<path d="M177.425 23.7637C174.642 22.4726 171.665 21.5342 168.554 21C168.172 21.6849 167.725 22.6062 167.417 23.339C164.11 22.8459 160.833 22.8459 157.586 23.339C157.278 22.6062 156.821 21.6849 156.436 21C153.321 21.5342 150.341 22.476 147.558 23.7705C141.944 32.1815 140.422 40.3836 141.183 48.4692C144.906 51.226 148.515 52.9007 152.063 53.9966C152.939 52.8014 153.72 51.5308 154.393 50.1918C153.111 49.7089 151.884 49.113 150.723 48.4212C151.031 48.1952 151.332 47.9589 151.623 47.7158C158.698 50.9966 166.386 50.9966 173.377 47.7158C173.671 47.9589 173.972 48.1952 174.276 48.4212C173.113 49.1164 171.882 49.7123 170.6 50.1952C171.273 51.5308 172.051 52.8048 172.93 54C176.481 52.9041 180.094 51.2295 183.817 48.4692C184.71 39.0959 182.292 30.9692 177.425 23.7637ZM155.357 43.4966C153.233 43.4966 151.491 41.5308 151.491 39.137C151.491 36.7432 153.196 34.774 155.357 34.774C157.518 34.774 159.26 36.7397 159.223 39.137C159.226 41.5308 157.518 43.4966 155.357 43.4966ZM169.643 43.4966C167.519 43.4966 165.777 41.5308 165.777 39.137C165.777 36.7432 167.482 34.774 169.643 34.774C171.804 34.774 173.546 36.7397 173.509 39.137C173.509 41.5308 171.804 43.4966 169.643 43.4966Z" fill="#FF77D1"/>
<circle cx="186.5" cy="10.5" r="9" fill="#ED4245" stroke="white" stroke-width="3"/>
<g opacity="0.3">
<rect x="200" y="8" width="60" height="60" rx="10" fill="#58F287"/>
<path d="M245.425 23.7637C242.642 22.4726 239.665 21.5342 236.554 21C236.172 21.6849 235.725 22.6062 235.417 23.339C232.11 22.8459 228.833 22.8459 225.586 23.339C225.278 22.6062 224.821 21.6849 224.436 21C221.321 21.5342 218.341 22.476 215.558 23.7705C209.944 32.1815 208.422 40.3836 209.183 48.4692C212.906 51.226 216.515 52.9007 220.063 53.9966C220.939 52.8014 221.72 51.5308 222.393 50.1918C221.111 49.7089 219.884 49.113 218.723 48.4212C219.031 48.1952 219.332 47.9589 219.623 47.7158C226.698 50.9966 234.386 50.9966 241.377 47.7158C241.671 47.9589 241.972 48.1952 242.276 48.4212C241.113 49.1164 239.882 49.7123 238.6 50.1952C239.273 51.5308 240.051 52.8048 240.93 54C244.481 52.9041 248.094 51.2295 251.817 48.4692C252.71 39.0959 250.292 30.9692 245.425 23.7637ZM223.357 43.4966C221.233 43.4966 219.491 41.5308 219.491 39.137C219.491 36.7432 221.196 34.774 223.357 34.774C225.518 34.774 227.26 36.7397 227.223 39.137C227.226 41.5308 225.518 43.4966 223.357 43.4966ZM237.643 43.4966C235.519 43.4966 233.777 41.5308 233.777 39.137C233.777 36.7432 235.482 34.774 237.643 34.774C239.804 34.774 241.546 36.7397 241.509 39.137C241.509 41.5308 239.804 43.4966 237.643 43.4966Z" fill="#8AFFB9"/>
</g>
<g opacity="0.3">
<rect x="268" y="8" width="60" height="60" rx="10" fill="#EB459F"/>
<path d="M313.425 23.7637C310.642 22.4726 307.665 21.5342 304.554 21C304.172 21.6849 303.725 22.6062 303.417 23.339C300.11 22.8459 296.833 22.8459 293.586 23.339C293.278 22.6062 292.821 21.6849 292.436 21C289.321 21.5342 286.341 22.476 283.558 23.7705C277.944 32.1815 276.422 40.3836 277.183 48.4692C280.906 51.226 284.515 52.9007 288.063 53.9966C288.939 52.8014 289.72 51.5308 290.393 50.1918C289.111 49.7089 287.884 49.113 286.723 48.4212C287.031 48.1952 287.332 47.9589 287.623 47.7158C294.698 50.9966 302.386 50.9966 309.377 47.7158C309.671 47.9589 309.972 48.1952 310.276 48.4212C309.113 49.1164 307.882 49.7123 306.6 50.1952C307.273 51.5308 308.051 52.8048 308.93 54C312.481 52.9041 316.094 51.2295 319.817 48.4692C320.71 39.0959 318.292 30.9692 313.425 23.7637ZM291.357 43.4966C289.233 43.4966 287.491 41.5308 287.491 39.137C287.491 36.7432 289.196 34.774 291.357 34.774C293.518 34.774 295.26 36.7397 295.223 39.137C295.226 41.5308 293.518 43.4966 291.357 43.4966ZM305.643 43.4966C303.519 43.4966 301.777 41.5308 301.777 39.137C301.777 36.7432 303.482 34.774 305.643 34.774C307.804 34.774 309.546 36.7397 309.509 39.137C309.509 41.5308 307.804 43.4966 305.643 43.4966Z" fill="#FF77D1"/>
</g>
<g opacity="0.3">
<rect x="336" y="8" width="60" height="60" rx="10" fill="#5865F2"/>
<path d="M381.425 23.7637C378.642 22.4726 375.665 21.5342 372.554 21C372.172 21.6849 371.725 22.6062 371.417 23.339C368.11 22.8459 364.833 22.8459 361.586 23.339C361.278 22.6062 360.821 21.6849 360.436 21C357.321 21.5342 354.341 22.476 351.558 23.7705C345.944 32.1815 344.422 40.3836 345.183 48.4692C348.906 51.226 352.515 52.9007 356.063 53.9966C356.939 52.8014 357.72 51.5308 358.393 50.1918C357.111 49.7089 355.884 49.113 354.723 48.4212C355.031 48.1952 355.332 47.9589 355.623 47.7158C362.698 50.9966 370.386 50.9966 377.377 47.7158C377.671 47.9589 377.972 48.1952 378.276 48.4212C377.113 49.1164 375.882 49.7123 374.6 50.1952C375.273 51.5308 376.051 52.8048 376.93 54C380.481 52.9041 384.094 51.2295 387.817 48.4692C388.71 39.0959 386.292 30.9692 381.425 23.7637ZM359.357 43.4966C357.233 43.4966 355.491 41.5308 355.491 39.137C355.491 36.7432 357.196 34.774 359.357 34.774C361.518 34.774 363.26 36.7397 363.223 39.137C363.226 41.5308 361.518 43.4966 359.357 43.4966ZM373.643 43.4966C371.519 43.4966 369.777 41.5308 369.777 39.137C369.777 36.7432 371.482 34.774 373.643 34.774C375.804 34.774 377.546 36.7397 377.509 39.137C377.509 41.5308 375.804 43.4966 373.643 43.4966Z" fill="#808DFF"/>
</g>
</svg>
