<svg width="24" height="24" viewBox="0 0 24 24" fill="none" xmlns="http://www.w3.org/2000/svg">
<path fill-rule="evenodd" clip-rule="evenodd" d="M5.456 23.9882C4.92077 23.9691 4.23095 23.9273 3.91741 23.864C3.4388 23.7673 2.98682 23.6208 2.61095 23.4292C2.16933 23.2042 1.77352 22.917 1.43175 22.5758C1.0892 22.2339 0.800897 21.8377 0.574928 21.3954C0.383888 21.0216 0.237434 20.5723 0.140373 20.0964C0.0758161 19.7797 0.0331207 19.0848 0.0137661 18.5461C0.00591735 18.3259 0.00189027 18.041 0.00189027 17.9096L0 6.09228C0 5.9614 0.00398599 5.67638 0.0117936 5.45596C0.0308195 4.92077 0.072693 4.23095 0.136017 3.91741C0.232626 3.43884 0.379204 2.98682 0.570737 2.61095C0.795843 2.16928 1.08296 1.77356 1.42419 1.43175C1.76608 1.08924 2.1623 0.800938 2.60454 0.574928C2.97844 0.383929 3.42767 0.237434 3.90352 0.140373C4.22022 0.0758161 4.91522 0.0331207 5.45391 0.0138072C5.674 0.00591735 5.95898 0.00189027 6.09039 0.00189027L17.9077 0C18.0386 0 18.3236 0.0039449 18.544 0.0117936C19.0792 0.0308606 19.7691 0.072693 20.0825 0.136017C20.5612 0.232667 21.0132 0.379245 21.389 0.570737C21.8306 0.795843 22.2264 1.083 22.5682 1.42419C22.9107 1.76612 23.199 2.16226 23.425 2.60454C23.616 2.97844 23.7626 3.42763 23.8596 3.90352C23.9242 4.22022 23.9668 4.91527 23.9862 5.45391C23.9941 5.67404 23.9981 5.95898 23.9981 6.09039L24 17.9077C24 18.0386 23.996 18.3236 23.9882 18.544C23.9691 19.0792 23.9273 19.769 23.8639 20.0825C23.7673 20.5612 23.6208 21.0131 23.4292 21.389C23.2042 21.8307 22.917 22.2264 22.5758 22.5682C22.2339 22.9107 21.8377 23.1991 21.3954 23.425C21.0215 23.6161 20.5723 23.7626 20.0964 23.8596C19.7797 23.9241 19.0847 23.9668 18.5461 23.9862C18.3259 23.9941 18.041 23.9981 17.9096 23.9981L6.09228 24C5.96136 24 5.67634 23.996 5.456 23.9882Z" fill="url(#paint0_radial_2058_413)"/>
<mask id="mask0_2058_413" style="mask-type:luminance" maskUnits="userSpaceOnUse" x="0" y="0" width="24" height="24">
<path fill-rule="evenodd" clip-rule="evenodd" d="M5.456 23.9882C4.92077 23.9691 4.23095 23.9273 3.91741 23.864C3.4388 23.7673 2.98682 23.6208 2.61095 23.4292C2.16933 23.2042 1.77352 22.917 1.43175 22.5758C1.0892 22.2339 0.800897 21.8377 0.574928 21.3954C0.383888 21.0216 0.237434 20.5723 0.140373 20.0964C0.0758161 19.7797 0.0331207 19.0848 0.0137661 18.5461C0.00591735 18.3259 0.00189027 18.041 0.00189027 17.9096L0 6.09228C0 5.9614 0.00398599 5.67638 0.0117936 5.45596C0.0308195 4.92077 0.072693 4.23095 0.136017 3.91741C0.232626 3.43884 0.379204 2.98682 0.570737 2.61095C0.795843 2.16928 1.08296 1.77356 1.42419 1.43175C1.76608 1.08924 2.1623 0.800938 2.60454 0.574928C2.97844 0.383929 3.42767 0.237434 3.90352 0.140373C4.22022 0.0758161 4.91522 0.0331207 5.45391 0.0138072C5.674 0.00591735 5.95898 0.00189027 6.09039 0.00189027L17.9077 0C18.0386 0 18.3236 0.0039449 18.544 0.0117936C19.0792 0.0308606 19.7691 0.072693 20.0825 0.136017C20.5612 0.232667 21.0132 0.379245 21.389 0.570737C21.8306 0.795843 22.2264 1.083 22.5682 1.42419C22.9107 1.76612 23.199 2.16226 23.425 2.60454C23.616 2.97844 23.7626 3.42763 23.8596 3.90352C23.9242 4.22022 23.9668 4.91527 23.9862 5.45391C23.9941 5.67404 23.9981 5.95898 23.9981 6.09039L24 17.9077C24 18.0386 23.996 18.3236 23.9882 18.544C23.9691 19.0792 23.9273 19.769 23.8639 20.0825C23.7673 20.5612 23.6208 21.0131 23.4292 21.389C23.2042 21.8307 22.917 22.2264 22.5758 22.5682C22.2339 22.9107 21.8377 23.1991 21.3954 23.425C21.0215 23.6161 20.5723 23.7626 20.0964 23.8596C19.7797 23.9241 19.0847 23.9668 18.5461 23.9862C18.3259 23.9941 18.041 23.9981 17.9096 23.9981L6.09228 24C5.96136 24 5.67634 23.996 5.456 23.9882Z" fill="white"/>
</mask>
<g mask="url(#mask0_2058_413)">
<path fill-rule="evenodd" clip-rule="evenodd" d="M12.0498 3.0874C9.63876 3.0874 9.33618 3.098 8.38923 3.14134C7.44413 3.18486 6.79902 3.33532 6.23455 3.55609C5.65066 3.78411 5.15536 4.08914 4.66191 4.58554C4.16809 5.08175 3.86477 5.57983 3.63728 6.16681C3.41719 6.73463 3.26738 7.38355 3.22484 8.33357C3.18248 9.28583 3.17139 9.5903 3.17139 12.0148C3.17139 14.4394 3.18211 14.7427 3.22502 15.695C3.26849 16.6454 3.41811 17.2941 3.63746 17.8618C3.8644 18.4489 4.16772 18.947 4.66135 19.4432C5.15462 19.9398 5.64992 20.2456 6.23344 20.4736C6.79828 20.6944 7.44357 20.8448 8.38849 20.8883C9.33544 20.9317 9.63783 20.9423 12.0487 20.9423C14.4599 20.9423 14.7615 20.9317 15.7085 20.8883C16.6536 20.8448 17.2994 20.6944 17.8643 20.4736C18.448 20.2456 18.9425 19.9398 19.4358 19.4432C19.9296 18.947 20.2329 18.4489 20.4604 17.8619C20.6787 17.2941 20.8285 16.6452 20.8729 15.6952C20.9154 14.7429 20.9265 14.4394 20.9265 12.0148C20.9265 9.5903 20.9154 9.28602 20.8729 8.33376C20.8285 7.38336 20.6787 6.73463 20.4604 6.167C20.2329 5.57983 19.9296 5.08175 19.4358 4.58554C18.942 4.08895 18.4482 3.78393 17.8637 3.55609C17.2978 3.33532 16.6523 3.18486 15.7072 3.14134C14.7602 3.098 14.4588 3.0874 12.047 3.0874H12.0498ZM11.2534 4.69622C11.408 4.69598 11.5744 4.69605 11.7539 4.69613L12.0498 4.69622C14.4201 4.69622 14.7011 4.70477 15.6371 4.74755C16.5027 4.78735 16.9725 4.9328 17.2854 5.05499C17.6997 5.2168 17.995 5.41023 18.3056 5.72269C18.6163 6.03515 18.8086 6.33273 18.9699 6.74934C19.0914 7.06366 19.2363 7.53607 19.2757 8.4065C19.3182 9.3476 19.3274 9.6303 19.3274 12.0128C19.3274 14.3953 19.3182 14.678 19.2757 15.6191C19.2361 16.4895 19.0914 16.962 18.9699 17.2763C18.809 17.6929 18.6163 17.9895 18.3056 18.3018C17.9949 18.6143 17.6999 18.8077 17.2854 18.9695C16.9728 19.0923 16.5027 19.2373 15.6371 19.2771C14.7013 19.3199 14.4201 19.3292 12.0498 19.3292C9.67927 19.3292 9.39833 19.3199 8.46248 19.2771C7.59691 19.237 7.12713 19.0915 6.81401 18.9693C6.39972 18.8075 6.1038 18.6141 5.79308 18.3016C5.48236 17.9892 5.29001 17.6923 5.12874 17.2755C5.00722 16.9612 4.86241 16.4888 4.82301 15.6184C4.78047 14.6773 4.77196 14.3946 4.77196 12.0106C4.77196 9.62658 4.78047 9.34537 4.82301 8.40427C4.86259 7.53384 5.00722 7.06143 5.12874 6.74674C5.28964 6.33013 5.48236 6.03254 5.79308 5.72008C6.1038 5.40762 6.39972 5.2142 6.81401 5.05201C7.12695 4.92926 7.59691 4.78419 8.46248 4.7442C9.28144 4.70701 9.59882 4.69585 11.2534 4.69399V4.69622ZM15.7233 7.2495C15.7233 6.65787 16.2005 6.17858 16.7886 6.17858V6.1782C17.3767 6.1782 17.8539 6.65805 17.8539 7.2495C17.8539 7.84094 17.3767 8.32079 16.7886 8.32079C16.2005 8.32079 15.7233 7.84094 15.7233 7.2495ZM12.0496 7.43024C9.53194 7.43034 7.49074 9.48306 7.49074 12.0149C7.49074 14.5467 9.53204 16.5985 12.0498 16.5985C14.5675 16.5985 16.6081 14.5467 16.6081 12.0149C16.6081 9.483 14.5673 7.43024 12.0496 7.43024ZM15.009 12.0149C15.009 10.3713 13.684 9.03907 12.0498 9.03907C10.4154 9.03907 9.09056 10.3713 9.09056 12.0149C9.09056 13.6583 10.4154 14.9907 12.0498 14.9907C13.684 14.9907 15.009 13.6583 15.009 12.0149Z" fill="white"/>
</g>
<defs>
<radialGradient id="paint0_radial_2058_413" cx="0" cy="0" r="1" gradientUnits="userSpaceOnUse" gradientTransform="translate(6.37503 25.8485) rotate(-90) scale(23.7857 23.7858)">
<stop stop-color="#FFDD55"/>
<stop offset="0.1" stop-color="#FFDD55"/>
<stop offset="0.5" stop-color="#FF543E"/>
<stop offset="1" stop-color="#C837AB"/>
</radialGradient>
</defs>
</svg>
