<svg width="4" height="16" viewBox="0 0 4 16" fill="none" xmlns="http://www.w3.org/2000/svg">
<path d="M0.791381 5.13416C0.701274 5.04735 0.591577 5 0.46621 5C0.203722 5 1.17184e-07 5.20519 9.44169e-08 5.46561C8.30333e-08 5.59583 0.0509306 5.71421 0.141038 5.80496L2.88345 8.50395L0.141038 11.195C0.0509301 11.2858 -4.25093e-07 11.4081 -4.36132e-07 11.5344C-4.58899e-07 11.7948 0.203722 12 0.466209 12C0.591577 12 0.701273 11.9526 0.787463 11.8658L3.83546 8.86697C3.94515 8.76437 4 8.63811 4 8.5C4 8.36189 3.94515 8.24352 3.83937 8.13698L0.791381 5.13416Z" fill="#9B9B9B"/>
</svg>
