<svg width="343" height="36" viewBox="0 0 343 36" fill="none" xmlns="http://www.w3.org/2000/svg">
<rect width="343" height="36" rx="10" fill="#EBEBEB"/>
<path d="M14.3833 22.8767C15.7695 22.8767 17.0479 22.4285 18.0938 21.6814L22.0283 25.616C22.2109 25.7986 22.4517 25.8899 22.709 25.8899C23.2485 25.8899 23.6304 25.4749 23.6304 24.9436C23.6304 24.6946 23.5474 24.4539 23.3647 24.2795L19.4551 20.3616C20.2769 19.2825 20.7666 17.946 20.7666 16.4934C20.7666 12.9822 17.8945 10.1101 14.3833 10.1101C10.8804 10.1101 8 12.9739 8 16.4934C8 20.0046 10.8721 22.8767 14.3833 22.8767ZM14.3833 21.4988C11.644 21.4988 9.37793 19.2327 9.37793 16.4934C9.37793 13.7542 11.644 11.488 14.3833 11.488C17.1226 11.488 19.3887 13.7542 19.3887 16.4934C19.3887 19.2327 17.1226 21.4988 14.3833 21.4988Z" fill="#9B9B9B"/>
<path d="M31.4664 10.978H38.3514C38.3514 14.837 35.6484 17.574 31.2794 18.815L30.7014 17.727C34.3224 16.69 36.5834 14.701 36.8724 12.117H31.4664V10.978ZM34.6114 20.464V23.915H41.7174V20.464H34.6114ZM33.2344 25.037V19.359H43.0944V25.037H33.2344ZM41.6834 10.009H43.0944V18.713H41.6834V15.075H38.3684V13.936H41.6834V10.009ZM53.395 17.234L52.647 18.288C51.236 17.71 50.182 16.588 49.638 15.279C49.094 16.724 48.006 18.016 46.527 18.679L45.779 17.608C47.768 16.707 48.958 14.701 48.958 12.967V10.91H50.301V12.967C50.301 14.684 51.423 16.452 53.395 17.234ZM48.38 21.195V20.073H58.631V25.258H57.237V21.195H48.38ZM57.288 10.026H58.631V19.24H57.288V15.126H55.35V19.138H54.024V10.281H55.35V13.987H57.288V10.026ZM65.4637 20.702C66.8577 20.702 67.8607 19.716 67.8607 18.356C67.8607 16.979 66.8577 15.993 65.4637 15.993C64.0867 15.993 63.0837 16.979 63.0837 18.356C63.0837 19.716 64.0867 20.702 65.4637 20.702ZM65.4637 14.837C67.6397 14.837 69.1867 16.299 69.1867 18.356C69.1867 20.43 67.6397 21.858 65.4637 21.858C63.3217 21.858 61.7747 20.43 61.7747 18.356C61.7747 16.299 63.3217 14.837 65.4637 14.837ZM66.1437 10.196V12.457H69.9007V13.579H60.9077V12.457H64.7497V10.196H66.1437ZM75.2387 16.282V17.455H72.7397V25.258H71.3457V10.026H72.7397V16.282H75.2387ZM77.1244 11.658H84.2644C84.2644 16.061 82.2414 19.937 77.1754 22.419L76.4274 21.28C80.5244 19.325 82.5644 16.401 82.8534 12.78H77.1244V11.658ZM87.3414 10.009H88.7354V25.258H87.3414V10.009Z" fill="#9B9B9B"/>
</svg>
