<svg width="20" height="20" viewBox="0 0 20 20" fill="none" xmlns="http://www.w3.org/2000/svg">
<path d="M10 19.9901C15.4706 19.9901 20 15.4532 20 9.99507C20 4.52718 15.4608 0 9.99021 0C4.52942 0 0 4.52718 0 9.99507C0 15.4532 4.53922 19.9901 10 19.9901Z" fill="#9B9B9B"/>
<path d="M6.70589 14.1107C6.25491 14.1107 5.90198 13.7481 5.90198 13.2973C5.90198 13.0818 5.98041 12.876 6.13727 12.7291L8.85293 10.0048L6.13727 7.29052C5.98041 7.13373 5.90198 6.93775 5.90198 6.72217C5.90198 6.26161 6.25491 5.91864 6.70589 5.91864C6.93139 5.91864 7.10786 5.99704 7.26472 6.14403L10 8.8682L12.7549 6.13423C12.9216 5.96764 13.098 5.89905 13.3138 5.89905C13.7647 5.89905 14.1275 6.25181 14.1275 6.70257C14.1275 6.92796 14.0589 7.10433 13.8824 7.28072L11.1569 10.0048L13.8726 12.7192C14.0392 12.8662 14.1177 13.072 14.1177 13.2973C14.1177 13.7481 13.7549 14.1107 13.2941 14.1107C13.0687 14.1107 12.8628 14.0323 12.7157 13.8756L10 11.1513L7.29413 13.8756C7.13727 14.0323 6.93139 14.1107 6.70589 14.1107Z" fill="white"/>
</svg>
