<svg width="75" height="12" viewBox="0 0 75 12" fill="none" xmlns="http://www.w3.org/2000/svg">
<path d="M2.00012 7H1.00012C0.447837 7 0.00012207 7.44772 0.00012207 8L0.00012207 10C0.00012207 10.5523 0.447837 11 1.00012 11H2.00012C2.55241 11 3.00012 10.5523 3.00012 10V8C3.00012 7.44772 2.55241 7 2.00012 7Z" fill="black"/>
<path d="M7.00012 5H6.00012C5.44784 5 5.00012 5.44772 5.00012 6V10C5.00012 10.5523 5.44784 11 6.00012 11H7.00012C7.55241 11 8.00012 10.5523 8.00012 10V6C8.00012 5.44772 7.55241 5 7.00012 5Z" fill="black"/>
<path d="M12.0001 3H11.0001C10.4478 3 10.0001 3.44772 10.0001 4V10C10.0001 10.5523 10.4478 11 11.0001 11H12.0001C12.5524 11 13.0001 10.5523 13.0001 10V4C13.0001 3.44772 12.5524 3 12.0001 3Z" fill="black"/>
<path d="M17.0001 1H16.0001C15.4478 1 15.0001 1.44772 15.0001 2V10C15.0001 10.5523 15.4478 11 16.0001 11H17.0001C17.5524 11 18.0001 10.5523 18.0001 10V2C18.0001 1.44772 17.5524 1 17.0001 1Z" fill="black"/>
<g clip-path="url(#clip0_323_108)">
<path d="M34.4913 11.8094C34.5406 11.8128 34.5902 11.8057 34.6365 11.7884C34.6829 11.7712 34.7251 11.7443 34.7603 11.7096C34.8363 11.6406 36.5292 9.93846 36.9132 9.59946C36.9617 9.52547 36.9915 9.44055 36.9993 9.35239C36.9869 9.25512 36.9392 9.16583 36.8653 9.10141C36.1774 8.58451 35.3403 8.30502 34.4798 8.30502C33.6194 8.30502 32.7822 8.58451 32.0943 9.10141C32.0393 9.17473 32.0047 9.26133 31.9942 9.35239C31.9878 9.39871 31.9938 9.446 32.0113 9.48935C32.0289 9.5327 32.0575 9.57065 32.0943 9.59946C32.1853 9.69946 34.1783 11.6286 34.2733 11.7096C34.3683 11.7906 34.3703 11.8094 34.4913 11.8094Z" fill="black"/>
<path d="M29.5001 6.48746C29.5076 6.5759 29.5462 6.65882 29.6091 6.72147L30.7642 8.02151C30.8252 8.07925 30.9061 8.11136 30.9901 8.11136C31.0742 8.11136 31.1551 8.07925 31.2162 8.02151C32.0869 7.13464 33.2733 6.62877 34.5161 6.61453C35.7571 6.63731 36.9405 7.14187 37.8162 8.02151C37.877 8.07781 37.9568 8.10904 38.0397 8.10904C38.1225 8.10904 38.2024 8.07781 38.2632 8.02151L39.4252 6.72147C39.4766 6.65388 39.5062 6.57227 39.5101 6.48746C39.515 6.44363 39.51 6.39926 39.4952 6.3577C39.4805 6.31613 39.4565 6.27846 39.4252 6.24747C38.7988 5.57319 38.0402 5.03542 37.1965 4.66763C36.3529 4.29985 35.4425 4.11002 34.5222 4.11002C33.6019 4.11002 32.6914 4.29985 31.8478 4.66763C31.0042 5.03542 30.2455 5.57319 29.6191 6.24747C29.5371 6.36447 29.5001 6.35446 29.5001 6.48746Z" fill="black"/>
<path d="M26.5972 3.39352C26.5342 3.49352 26.4972 3.5175 26.4972 3.6395C26.506 3.72823 26.5408 3.81234 26.5972 3.88144C26.5972 3.88144 27.5642 4.92554 27.8112 5.10654C27.878 5.15779 27.9599 5.18552 28.0442 5.18552C28.1284 5.18552 28.2102 5.15779 28.2771 5.10654C29.9524 3.49438 32.1871 2.59372 34.5121 2.59372C36.8371 2.59372 39.0719 3.49438 40.7472 5.10654C40.7472 5.10654 41.0091 5.29654 41.1971 5.10654C41.3851 4.91654 42.3971 3.88144 42.3971 3.88144C42.4539 3.81259 42.4888 3.72835 42.4972 3.6395C42.5017 3.59345 42.495 3.54698 42.4775 3.50412C42.4601 3.46126 42.4325 3.42333 42.3971 3.39352C40.2799 1.34011 37.4466 0.191742 34.4972 0.191742C31.5478 0.191742 28.7143 1.34011 26.5972 3.39352Z" fill="black"/>
</g>
<g clip-path="url(#clip1_323_108)">
<path opacity="0.4" d="M53.8642 0.5C53.2164 0.515995 52.6015 0.788118 52.154 1.25673C51.7066 1.72535 51.4632 2.35223 51.4772 3V9C51.4632 9.6476 51.7065 10.2743 52.1537 10.7429C52.6009 11.2115 53.2156 11.4837 53.8632 11.5H69.1362C69.7839 11.484 70.3988 11.2119 70.8463 10.7433C71.2937 10.2747 71.5371 9.64777 71.5232 9V3C71.5371 2.35223 71.2937 1.72535 70.8463 1.25673C70.3988 0.788118 69.7839 0.515995 69.1362 0.5H53.8642ZM53.8642 0L69.1362 0C69.9137 0.0183534 70.6521 0.344655 71.1891 0.907192C71.7261 1.46973 72.0179 2.22248 72.0002 3V9C72.0179 9.77752 71.7261 10.5303 71.1891 11.0928C70.6521 11.6553 69.9137 11.9816 69.1362 12H53.8642C53.0866 11.9816 52.3482 11.6553 51.8112 11.0928C51.2742 10.5303 50.9824 9.77752 51.0002 9V3C50.9824 2.22248 51.2742 1.46973 51.8112 0.907192C52.3482 0.344655 53.0866 0.0183534 53.8642 0V0Z" fill="black"/>
<rect x="53.0001" y="2" width="17" height="8" rx="1" fill="black"/>
<path opacity="0.4" d="M73.0001 4C73.5306 4 74.0393 4.21071 74.4143 4.58579C74.7894 4.96086 75.0001 5.46957 75.0001 6C75.0001 6.53043 74.7894 7.03914 74.4143 7.41421C74.0393 7.78929 73.5306 8 73.0001 8V4Z" fill="black"/>
</g>
<defs>
<clipPath id="clip0_323_108">
<rect width="16" height="11.619" fill="white" transform="translate(26.5001 0.190491)"/>
</clipPath>
<clipPath id="clip1_323_108">
<rect width="24" height="12" fill="white" transform="translate(51.0001)"/>
</clipPath>
</defs>
</svg>
