<svg width="25" height="24" viewBox="0 0 25 24" fill="none" xmlns="http://www.w3.org/2000/svg">
<path d="M5.99206 21C7.05027 21 9.68695 19.869 11.1861 18.8159C11.336 18.7122 11.4594 18.669 11.5829 18.669C11.6976 18.6777 11.8122 18.6863 11.9268 18.6863C18.2849 18.6863 22.5 15.1468 22.5 10.8474C22.5 6.50503 18.0556 3 12.5 3C6.94445 3 2.5 6.50503 2.5 10.8474C2.5 13.61 4.23721 16.036 7.0679 17.5208C7.20018 17.5899 7.24427 17.7194 7.17373 17.8489C6.6799 18.6432 5.79806 19.5928 5.46297 20.0245C5.11905 20.4561 5.31305 21 5.99206 21Z" fill="#B9B9B9"/>
</svg>
